<mxfile host="app.diagrams.net" modified="2021-03-05T10:06:32.633Z" agent="5.0 (Windows)" etag="dBScPsNIgFzXitDOh-Lm" version="14.4.4" type="github">
  <diagram name="Page-1" id="90a13364-a465-7bf4-72fc-28e22215d7a0">
    <mxGraphModel dx="1117" dy="616" grid="1" gridSize="10" guides="1" tooltips="1" connect="1" arrows="1" fold="1" page="1" pageScale="1.5" pageWidth="1169" pageHeight="826" background="#ffffff" math="0" shadow="0">
      <root>
        <mxCell id="0" style=";html=1;" />
        <mxCell id="1" style=";html=1;" parent="0" />
        <mxCell id="aSYHZ8J5is49GkjM08Yo-1" value="" style="ellipse;whiteSpace=wrap;html=1;aspect=fixed;strokeWidth=5;strokeColor=#99FF33;" parent="1" vertex="1">
          <mxGeometry x="40" y="330" width="490" height="490" as="geometry" />
        </mxCell>
        <mxCell id="aSYHZ8J5is49GkjM08Yo-3" value="" style="verticalLabelPosition=bottom;verticalAlign=top;html=1;shape=mxgraph.basic.arc;startAngle=0.3;endAngle=0.715534948534998;rotation=-90;strokeWidth=5;strokeColor=#4D9900;" parent="1" vertex="1">
          <mxGeometry x="235" y="275" width="698.75" height="590" as="geometry" />
        </mxCell>
        <mxCell id="aSYHZ8J5is49GkjM08Yo-4" value="" style="verticalLabelPosition=bottom;verticalAlign=top;html=1;shape=mxgraph.basic.arc;startAngle=0.3;endAngle=0.715534948534998;rotation=-90;strokeWidth=5;strokeColor=#66CC00;" parent="1" vertex="1">
          <mxGeometry x="200" y="342.5" width="561.88" height="465" as="geometry" />
        </mxCell>
        <mxCell id="aSYHZ8J5is49GkjM08Yo-5" value="" style="verticalLabelPosition=bottom;verticalAlign=top;html=1;shape=mxgraph.basic.arc;startAngle=0.3;endAngle=0.715534948534998;rotation=-90;fillColor=#CCFFCC;strokeWidth=5;strokeColor=#336600;" parent="1" vertex="1">
          <mxGeometry x="276.04" y="221.04" width="833.75" height="690" as="geometry" />
        </mxCell>
        <mxCell id="aSYHZ8J5is49GkjM08Yo-6" value="" style="endArrow=none;html=1;strokeWidth=5;strokeColor=#336600;" parent="1" edge="1">
          <mxGeometry width="50" height="50" relative="1" as="geometry">
            <mxPoint x="761.88" y="974" as="sourcePoint" />
            <mxPoint x="411.88" y="789" as="targetPoint" />
          </mxGeometry>
        </mxCell>
        <mxCell id="aSYHZ8J5is49GkjM08Yo-9" value="" style="endArrow=none;html=1;strokeWidth=5;strokeColor=#336600;" parent="1" edge="1">
          <mxGeometry width="50" height="50" relative="1" as="geometry">
            <mxPoint x="800" y="167" as="sourcePoint" />
            <mxPoint x="430" y="377" as="targetPoint" />
          </mxGeometry>
        </mxCell>
        <mxCell id="aSYHZ8J5is49GkjM08Yo-10" value="" style="shape=image;verticalLabelPosition=bottom;labelBackgroundColor=#ffffff;verticalAlign=top;aspect=fixed;imageAspect=0;image=data:image/png,iVBORw0KGgoAAAANSUhEUgAAAPoAAAHeCAYAAACyphapAAAgAElEQVR4AeydB3gU17n3D2CMC1VbZna2992Z2S4BQhSh3gtIQkiooI4a6hJCgqU3GwyuMi7YYMCig4xxT+zYcXLzOb65dq4dxynXdhw7xZVmQOd73tkV4BIboYIEZ59nn92dnTlz5nfmP+973tMQIi9CgBAgBAgBQoAQIAQIAUKAECAECAFCgBAgBAgBQoAQIAQIAUKAECAECAFCgBAgBAgBQoAQIAQIAUKAECAECAFCgBAgBAgBQoAQIAQIAUKAECAECAFCgBAgBAgBQoAQIAQIAUKAECAECAFCgBAgBAgBQoAQIAQIAUKAECAECAFCgBAgBAgBQoAQIAQIAUKAECAECAFCgBAgBAgBQoAQIAQIAUKAECAECAFCgBAgBAgBQoAQIAQIAUKAECAECAFCgBAgBAgBQoAQIAQIAUKAECAECAFCgBAgBAgBQoAQIAQIAUKAECAECAFCgBAgBAgBQoAQIAQIAUKAECAECAFCgBAgBAgBQoAQIAQIAUKAECAECAFCgBAgBAgBQoAQIAQIAUKAECAECAFCgBAgBAgBQoAQGOIEOtEoT4dnNHoJ3QSfhuOGMZpHNbeg36DRyL8dpaNRqBONCn0p9CbDNsMYzUuaW5hjnttsXbZJ1hMemf24XWE9YJVxnVwAc4y5DfZBXjRyiF85yR4hcB0T6ESjQMzU4/bbbU/YJvFH+EDzfkeBuTMwzbLXUWl50rmGPeT2cvvdxdYDrhzbU54sttMzndvlDIHf7D73cv6Q5z6+y33QesD1qvkx2x/ZTvfHXJf7z9wR93/xR9xPWrs8K61HPW7hgXEdoySXRggMLQIYjQCLrPFqbuEOOEO4I55V3GHXEfaY6zX2sOdv/FH3ef6w6zx3zNNt6/Jg23EP5g66MH/Mg/mn3Jg/6jrLHXKd5Q66urmjvv9hH/6oG1t3OrD5YTtm9zmx7YQHO14IwrZnAjF/wv0m97RrvqrLNgkhNGJoASG5IQSuBwLgNneiUeil0JtA3EHPBCnNTzpmWx+3r2YPuP/IH/Kc54+4MYiah/dRN+YPw9uFuSO+79xR///w+5jHt+9Rv/hh35794POIG7NPOrF1txNzhz3Y/rQH8/CweMrzBX8icI31KZd6kFz5kSgf3YJK0GjycLkebmRyDd8nAOLG6YLVtjxoMZmfcMy2HHXNt+51bLB2Op637nX9kTvoOmN72iOIEoQJorZ2OjG714m5Aw6fyEH0R9yY8wtfsOpHfb8te5yY2+/E7H6X/3835o6Bxfe9fQ8J38MCLD6cy3bcc5Y/HnjUetw+Fer23894P26pRXLUiDagOlSAalFAP6ZMkiIErjEBfzCN3e3g+GPuVPOTrvWWXY7/5fa7ztmfCcTcfpdPyIfAMvssr+URG2Y7nZgD1/yIC1t3OzD7hANzB1yYP+AStnMHwTr7jgEhC78PubANRH3IJ3QbHO/3BmBfEL3PS/AfB797BP+c5//xXe4FihMcCHBgXPl8ZEMN6A1Ug+5DVUhxjUuGnJ4Q6DOBERAhNz8cMo7db59i3ecst+6x/4zb7zrF7XViy2N2zHU6MHfIKbwtIGKw3Ptd2PokWHAHZuF/sOIHndgKxzzCY3YP/AYhg4V3CvVuqKtfqrc7BVfffiJQsNbwkADRg+CF/Z90CsK3Qb2+y/9AgAcBCB6s+1Oez+3PBHrZ51jVgLjyhciF6tGbaDF6CFUgdZ8pkwQIgWtEQBA4/zxPWR635Zt3Op6x7nR8ZtlpP2951HbavN12wfyIHVsetWPr43Zs3eXA3GGXr+59wCkE2KAebbyHx+YOHpsfsmHjvTzWb7RizVLjecNWHlt2ObBlhw1znS7BTbfu8okX3HlIE/6HB4LlcSc2ddiwYZNVOB+4/9Yn7Bi8BctDNmzq4LF1j12oq9tOBGL+KUHo8NA4x50IPG4/7p6KoBmvP1+FaDJqRP+NatDjqAZp+jNpkhYhMCgEwILzR3iKO+bK5bo8L/KH3ScFt/ygC1ufcPos+D4n5p50YPZJB7Y8ahOi4SBm04N2rL+TxYZ7OKy/w4qVNTqsbjB0q1uM55XVujOKAs1pJlf93/J89T9VdfqzimLNGVW1/rR2mfmcfr35vGELhw13sNiwhcW6NRasaTV2K8q03YpSbbeyTNOtW2nGpu12bNpuE95CYM7vOYB1tz8bJHgCYPXhDVUK/pnA/3I87V5gOO6SINxPbe4FKBg1o9+hWrQHLUK6QSmYwT4JtKD4qj6Xqj+wzbe9JzeX/uvZQj6HOAEvGql5KfQWbr9rvvWA62f8QfcpIeLdCVFuB2b3O7FuoxXr11uwfr0Va9pM3br1lm5Fqa6byVVfkBeoz8sXqs8yeeozdIbyJJ2l+ppKV/1dHC17Rxojf04aJ98sjpQVTYpkQqTh8jpRBHO3ZLaslYqRL6GSFdupOYrX6FTFX+g05Rd0mvIkNUfxKZUo/4skhnlXEsX8QRLLvEelKT9TVupOq2v159T1+vPa1eZu/WYWG+/hBK/BstOBLbsdQpUCvkMswPaUPyr/lPsR9qBjuuG4YbzQUtCX4ihB09ES9BaqRftQOTL0JakhdWw6GmV4zzDG/LB5HP/zmUrLHotGs8WiMb1kEvPPT6HsR+1a/rhHbzrmkNOdLgn7nEcFnZeoZ+y3Q8cmRafiVgiEQr8GX2coz+jvPBiG1OXekJnhOjkDe8i1zbiN+xeIWbfKgvXrzN2aVuMFRZnmgrrOcFZRpj0ly1IKApbGy/8Mb0mc/H/FsbLXqTimSxzF3CcJY5olMyV5k0LoWCqU4scHj4eg2E0/CdWAxtChtCZghix6okeUIg4RBwZEMcqJzokTx5kYsXSaVC+NlUZJohXNVLJ8L52qfIVKkP+vJJ75O52i+JLOUJ1kctSnFWXa0+oawzeqFuM59TLTBf1aywXjVq4b3H/zY/aP2QPODutTzkjTMY8YdVxl81gRmuEX+oFhK3SwzEILChopfFYZxqjbDcH8iclrLA/bDuqWGf5iedz+sWGD5SP9HdZfmh7i37TscnxiuIv9l3GL9R3jvexrXKfzA+th92v8Yfcz/FH3IW6f5zHrftd9tmPuDZb9rmXs0cBS/ogrcFKnZ4LQi/Hb3sBP3hJkh34mYKgyjNGttqwz32f/RFmtPyPLVJ6UxjNfS2Plf5XGyv5HGid7XRrDbJREMAvFM+h4SZDEKQmWGKRhUv24UEaMQq9AyP2cZ3h4UNMo6URuomOCXRQmckvnBIRQReIZdHtAsOwB8QzpYfEs2c/F0cwb0jj5n+lU5efKSv0Zw13cBctO5yl2n/Nn3BF3seMFh1ywPr3pSjuchQ7X2eEZbdnj1BjvNTr5w0HTrAfcU5UV2lWKQvUHlp2ObsNdHJbNV2FVuRYzuWpMpyownanCiiI1puepsLJEg1VVOqxeYsTGLZzPg9phx9pWI4bYjflBGzZu44Q4C3fY/QV/xP2iudPZaHqAcyDvNblX+v/uG6YpjlAXql30XPWdkhjZKiqOyRKHy2eLw+WmceHjROOjFQHXSMx9xTlKHGIeNyGI0k2wi8LFs5mV0nj5m4pi7Rf61dZzlofs5yydrv/mDjvWmQ45Jhu2GcZfUZR+OAo9HY1iO9mbXS9PYW0H3dm6ZeaXtavM/9JBbORO9kMmR/V7Saz8GyZPjel0JZbGMlgcSmNxmAxLImVYHC7DYuGTxpIomfCfZLb/M1qGpQlyLA6nMZWmxHSKQvgty1JjTbtJCKKatnFYv4V/Sb9JL+1roZLjCYGfJCAKVsgDZtHpkmjZftl89ceaVtNZU4et27rH+SF7wHU3e9g+RdLJjv3RNviFaBZqEeroQ99196KboO5suoudzu5yVJm28+/pVlk+hzgKlazolsQwmEpWYEksI7xFs2ksiWawJIrxiTzK910Qd6Rf9GE+gYtDKSwKpbFoFiW84bfwQAiTfWu7NF6OqRTlF4oCzbpJJboJP1lIZAdCoL8IMB7mtomhcqc0kllJpyrfVtUbThnv57vZva7/4zody4TutL46/PdPWYwiUDP6PapFQ1foXnSTwWsY79jnidJttDygv4P9DJo3mTwNBuFJYuUYRN4javgUR/mELIgcBB8hw+IImW+faJnPkkf6RHxR5CDu2WD5aeEThA+/fZ8UFkcyWJIg/7c0himnoqjbvw+TbCEEBomAeLrcJA1llsvSlG+rW02nzA86zrGdjl9YD7kKzUdcjL9P+6XcFKIY1IzeGbJC97I3G9dY49XNhkPqZaavlWUaLJvvq2sLgvaLV3DPe8QOQhe2+930cL/1hm3gsoOYQfjw2fNAgGMiGSxNkmNxDIOliQosifG7+ODeR9LfiGbSn0rDpGXIw9x2CSD5RghcQwLiEMZMRctWMznqP+tWWr4xP+I4z+6zv8ztc2WadpvEF9vh81EKakZ/GHJC7/CMVmxW3Kpr0ZWrl5v+IctWYypBjiVxPkH66tm+74IlB5GDax7TI3Lfpxjq3n5rDvV0n3sOlrrHmtNCfR3q5eDyUxkqIUgn1O8z1RDAu0BnKL4Uh8l2ikOoJBSK+rfD0jW8R8ipryMCojB5mDhG+aR8oeYT/Ub2nGWn8wv2oPMR7kBgiNAOX4gyUTN6fwgJfYSuwzPB2umYp1tufILJ03wO0XEpCFywujIsBkH7LbAgbv93IcAG1heCbT0WWwiyyYQ6Oog8YAaNRTMoHBAi9b2nSbF4JvymsHgWJaRLpSq75XnqC4pi7VlZjup/pHHyMspOXPXrSBbX56VAHV4yi46VJij2Kyv0/zBsZrute1wf2w4H3iNaJrlrRNPIj4aK0OVVBoX5YftD2tWW08a7OExnKH31b7DU3xI01MN7gmtgvX31ckHkIHR/EO2isGdQgsAh2BYwzSdyQfDTpd9MmiY9ExAiPSWaTp0MCJZ8FRAs/Ug0nfqdJF5xtyhBJP/RYOb1ecuQqxrOBCSh7FhpqLxMmqL6f8o649cQsDM+yp0fu3Zc94jaEdcuGOdFI9m32Zt163UT6BzFNuUiLfQa9EXPIQAGAofI+cU3WHWoN/vFDfVusOAgcHDPQygcMF2KA8ByTxes94VJIdSZSSHU2Unw3yzqgng2fUocJvtYFEIfmDRZ0ioJlhSIAqlk8XRxqChYZEF2RIJtw/lmJ3lHiIqitKJIRTOTrvqtqtlwauzyCXjQhQ6dXfwTfRjbjFbTDtsy3QrLUdkC5T8kMUx3Tzv3RTf9osj9dXQQec8bRA7NZD0R8nBKeBBAYI2aq8RUmuI9WZryAVm6ooMp1n7K5KveEgfLSiYGS1zII/QoJLcFIXD9EqCmq3QT5kzcPqr2ps8G1XXvQKPtewN553FniPVIYKZmmWW3ulH/mWKRFtqo/dbaZ7G/b839Agfhg7X319dhPwiogbBl81QYOrjIslVYlq3uli1Qn2MWaM4yueozsgWaL5h8bRWVQ+rc1++dTa7s+wQKUdYgBuNGQJdV9WJdln6d9Q3DndYv1A36L9TVuvNUquKS+w2W2t9sdsld97vuPVY8jMaimfTFgFrATApLovwdZCJkQoSeSlNdoBKZj6l45qAoivkvcbjsAyqBeXhc6Djx90GQLYTA9UygCKWhZvTegFp0jEZ4fuO5TdfBqoybLVnqRsPrTJ76LD1HAR1QhE4vEGgTrDNYanDFoedaT/DNb70Fd16or/vcdGk8gyXxjFA3h4i6NNHXRCaJlF2QxsnPSOLl/yMNl5YiO3X7OPk40STdJBVCiLSBX8/3M7m2/0CgBMWjFvTuQApdv5pXsvudHZY9zj9rlxrPynLUWBInx5TQq80fMe+x4D2BtZ46OVhwv/ihiY1KVwrHwTYqVYnhYQEdXIT0EuXd4gjZGdEs+m1JlHzppHQGhE3myv8PRU8230gEClAUWoL+d8CE7kUj5WWaWnWN/iNFqQZLUxSCpZbGybEk4ZKIBSt+0XL7rLtgwS8T+sW+7NBjbTYteALSeHm3KIw+J4lmvhJFMH8QzaTummCbABNoEIHfSPcxudafIFCEwtAS9PZACV0zX2ORzVP+QpIgvyAIF5rFomQ+dx3axv0W/KKb3iNsv0WXJkFXVOiaeqlLqtA7DrquxsixKFL2oSSC7hKHMEljXWMlpM37J8qb/H2DEihEMwds4gkvGinLUrbSacq/CxYc6uEQHfePLvO1hfvr4n5rLukRur+ODpF0EQwygbo5PBiiGEzPUwtjyuV5aiwv0PxNlq5ORbFozA1aguSyCYErIDCA49EZsOaZylckiYrzPaPLQKjCMFIh0OYfYQbfoWfbxQCcT/xCO3iqAlPzfP3P5QVqLC/UYOhMoyjTYiZfc1o2T1VDRpJdQTmTXW5wAgMl9B5rnv5taw4WHYQuBNjAel/+9lt8aAuHmWDkMAvMfBWW56oxk6/GdJoSy3LV5+gMFZbGM19JExSNE2wTYPkq8iIECIEfJTBAQhfq5mDNk75jzb/VZ90veHDboxlMzVFgKkmBZVkqQdRUhhIzC9SYSpFjOluNZQu0Z+h05SuybPWXsiTFgxPiich/tGzJn4TARQIDI3Rf3Txd+XdhUgih7ds/MYS/nt1jycHCU0kw/FQu9Gij5yp83VbnKYVpoGDsOQwZlZdqsaJCe55KV/1eEs+8rMhSGElk/WIpki+EwE8QGAChaxdozRBpl15mzXvGikui/V1b/QE5mNwBesWBqw6RdbDq0H0VJnCE9nZFiQYrSrRYUak/x+RpTkvimWaxS8yQ6PpPlCv5mxD4FoH+FjrUzecrl9Jpik96Iu1Cfdxv1YXmNLDiyXIsTfYJG4QO4oZgG5OvESy4LFN1gZ6j/EaaID8lCmc+koZRR8ShsiLo5fat/JMfhAAhcAUE+lno/rq5z5qDuHsE7v8Obd9UohzLMtVCrzZqji/wBq67OMI/KyvM5RYh+x0VwTwimizJGzd5nAkhNOoKrobsQggQAj9IoH+FPlKWfZk193d6ESLtEFH3z/oimgVTOlEYZmmFMeSiKJijTY7pdAWWgcu+QH1OMV+1PaBIDqu7kqWSfrDgyEZCoDcE+lHo4lydSTZf+QoFdXN/U5kwWKXHsoOwY2XCQBRfXVyFmRw1LIN1nk5XnqFSlCelscwn4jD6KBVPkW6svSlHsi8h8KME+k/oI5n5qhY6XfmxUDf393SDiDrMqEqnKXxR9Wz1BTpbdY5KUpyGFXTE4fT7khn0CdF02TpRiHSOdLLUgTxkhNmPlhn5kxDoNYF+EjqTrjWDNRci7eCKx/mGn9IZygv0HMU5SSxzWhLFfCaeJXtDNEP2uCRYUjlpimS6zCVTIxbd3Ot8kwMIAUKgFwT6Qeiw6KCiQOWl05Wf+hdUOE8lys9I45iT4nDZ26IZsp0TJ0uqRA568rjJ40QksNaL8iG7EgL9QqAvQveikbBEkvEB62LNKsuH8hz1WWmM/BNpFPOCKIxePymYShCHCG3eJGLeL4VFEiEErpbA1Qrdi0ZaN1qN5vvtW43buH+q6/WfMfNV28SRykCkIYscXG1xkOMIgYEhcDVC7/CMNt/H200dfJdxC/e1qlT3iTRBXiesVDswuSSpEgKEQJ8I9E7oI2C5YtNWa6bpQf5X2jXWU/JC7S+k8bI5klAJrNpKXoQAITAkCVyp0L1oJKwHbuiwtRjvs32kXWo+y2QonxOF00EkuDYkS5ZkihC4jAAIHdZHr/mRZZM70SjrVqvR9AC/13Qv96VqseELZq5ykzRMqScjyC5jSb4SAkOWAAi9Gb2F6tBBVIpg6Oe3XqyXvdncwc02P2p72riV/0pZqvu7JI5pGTuDhvnZyIsQIASGBYEeodego6gCweCRntcIiVcy1vQQV2TqsL2vW2c9L8/X/IqKZ5LI+uA9iMgnITBcCPQIfTF6GpUgi5BtWPSwg1WZ7ufuNT9g+7em1XyGyVC9OCmUmU7WKhsuBUvySQhcTuCS0J9H5cgKSyaZt/N28yO2fab7+K+UVfqT9BzVhoDQADKS7HJu5DshMKwIgNCb0FuoGr08umK023Q/l2l+2Pam4Q72rKJY9yEVJ28bO42SDqtrIpklBAiB7xAAoTeit0ZX3/y2cr32SfOD9o90q62wbNJ/SWIVsSiU9HL7DjHykxAYhgSK0IwR9SPekm6gLxjv5bG62XCayVQ/LJ0td6BQdNMwvCKSZUKglwQwGoG81/kaXvloxu1tt7+l3KDvVlXoP6eTVRvFkcJAlF7CIrsTAteOwAjUiUZ5OjyjmWOe2zSPam6BIZWG44Yxwnf4fElzi/1x++0wCgu2e455bmM6GOFtO2DTWbvsvP6gXcocY4TjIR1IA9IVpjmCz/RhPJ9ZEZoxpvm2tyYuEv1NnCYrmuSZNOHaFRc5MyHwUwTA+mI0CkQIwuU6uQD2KKuyHrVPtXa6FnEHXXvYg677LbvtSyx7XXewB5xr2MPuNexh11bumPt59ojnfsuTzjXsPtfT7D7nLuse525rp+sP7GHPP7gjnne5o+791iPuDfwxdyf/lGct1zU52rLXYrIecEVYjwTNtB6wqnWdngnUM/bbhQcB5Gc4vHqCcTXoF6gM8cMhyySPNxKBTjQKBlhM2TVlvHa7ljLfZTdz+x3R7DH3cna/6zh70PU2d9D1sXWf+0vugPMCd9CJ+WMebOvyYP6IC1sPuk9xR9wXbMc9mO/yYPvTHmx7KhDzh12YO+zG/GE3ZjudmH0SfsN/Hmw/EYj5pwKx7YQH8095TnKH3P9g9zvP8kfdJ7kj7o/YQ+7XbV3uI7bjnmXmp3m7YZdhPDxwrCc8Ms8xjxi8AuRFNwneAP5OlcCLRoLngX7jGY2wUDcenGV/Qei+LrAvoSrE3ki3ELnWoUzgpdCbnFucEw2P2qdaD7uXWve7j7N7XX+07rb/07rb+Q2334m5QyBOF+aOuDG3z4mte5yY3evE3D4HZuH/w27MHXVj7oDTJ2bYdtCBuQMu4Vh2v8u3336n8Mk+6cTcfrfvAXDEjfmjbswfc2PhIXHUg9kDcE43tsGDRHggwIMg8H3uoLuLO+D+NXfE8wHX5Xmbe8qznTsclMgecoU7jweGWA5aRPCwgk/1Y6zLuseRwx5ylNiOB2XzL7vthtcN4we8WnBJ6CdQpb/DzFAuf5K3G4BAJxrF7bTHcE84jvEHnJ/xXa5uQWxHPJg75sHcISe2PgGidQmCAyELYgfB7gVRO3wPgaMuwYrzh0CgTmwFyw3/73fgngcFWHPLLrDovvTgAcEecGDwDCBNELogeHiYgPDh4SK83b7/uzyC5RceKrD9iMf3YOhyn7U+6TrHHwn8O/ds4J3sEVed+UHbEete56eWnY4L1n0OzIN38XTg547npuzlX3BOg3jCgJUuCH2JMKilCy1C5gE7D0mYELhSAuYC8zjtSlOXZqnpjH6dBRvusGLLY3bM7nMKYgPR20Akz4J7HSiInT/mEiw3PABAtNa98DBwYP6IG7N7HcJ3sOTsHnDt3cJ27ogL2464BDce3Hpw+blOJ+Z6hC5YcJ9n4HP1XT7RC26/z/UXHjDHBBdfqCrAwwesvpBel0d4GPFg/Z8LxJbHHdj8sE3wOCB/4I3YnwnEjhcnY/65ye9xJ9wxECi8Uk692q9H6LXo8A8NaulVWmRnQqA/CCjSFbdSMUyLNI55WRIj+5jOUH2lbjac1bQaLug3sth0H4fZ3Q6fa77PiY0P2LD5ETtm9zgE9x1ECXVxwUrvc/gs+T4nNj8C+/GCyKH+btlhw+wuh2CZ4cEBDwXrbie2PMRj84M8Nj/qwOyTvvPAQwCOEaw61O3BS4B4AFh9EP5Rt++BcxQeOP4qBTw8unwxAO4Q1P092LrLic077Ni60yGcS/AAngaxB2HumcDDpmM26Ife/wG+S0I/iMqRoT/KiaRBCPQLAZjNJCCZZukYRZwojFkvjZK9Tqcr/0alqr6QZam+VlboTmuWGs8oa/SnlIu0p1QN+vOGrWy38T7beXOHDVt3O7DlUbtQP7c/4xEEadnpwOwTDmx5hMemB3jBUwDBQr0bhCwIGiz+QRdmhbq8W6ibw0ODPw6WOUhw38HDMD9qwxxYZrDgPVb+KHgGPo/BV8f3BQF7LL0gdniY7HII+YIHBGyDdG3PBp2zHfW0QF2+XwBensgloR8gQr8cDPk+5AjQsbRE4pQYJ4TIAicF0rGSGVSVeJrsTtE0Ol8UQudJ4+TPSuPk70vimZ/L0lTvy0s0X8sLNF+rG/Sn9Xdxp41382f169lvtMut5/R3sBeMd3PYsJXD5odsglsN9XZeqJu7sA3E2gWC9bv2h/2f8ADY48SWx2zY8qjvYSLECA75gn49LrsNjoUYAVh8qMeDx3AUYgw+yw8PDnYfeAK+KoP9WY/gwnPHPX+GVgUYdNKvBUCE3q84SWLXkIAiWBEgNosZRKHbJ02j+IAp9ELRVOkc8XRpiTROsZxKYLZKZjM7pLNlh8XR8l9LYpn/kyYo/iXLVH6tKNac1raZzxjv5r8x32c7Z7iLE7wB83Yew9sE7/vBC+Cw5RG7UOeHIJ5lhz+w54/ECw+HQz733PIY/OevYvgFLlh72Bea+/wih2Nsz3iw/fkg7HhpMgQc9+n2Wi4fM953qkTofWdIUhhmBNLRKHGIeNxtarFsomuiQzpLliqZzVRLwuSr6ST5/ZIU+VE6XfmRslp/RrdWsP7dpnt5bLyPx8a7WazfYMGWx+1CvRya9YQo/DGfRbfutGPTvRzWtOixdo0Zmx60Y3an41LArwuqBz7XXhD7UxDZ91l8+7NBgthtzwWesT0dWArt8/1Glgi931CShK4XAiy6WTSNDpLMpNoks2QHpEnyNxUFms9UtYZvdGst5xVlum5VtQ4Gh1yAiL4Fmvogog9NdQ/bsOEuFmvajFhZocPqej3Wek3YtN0mWHdo64fou1BNeMpn2aEDj9CK8HSgUFcHq1VT/bkAACAASURBVM6/EPRr2zFXsL8Lbt/JEqH3nSFJ4bomMEYyk3FJQ2VlVAyzXRzDvCgKo38nDpe9ySzQ/FZVrf+nslJ7RrPU2A1NZ0aw5s0GrGk3CUKnM1WYnq/GqsU6bNzGCUE4aPbjDkId3nOxXb6nAw4E5Rzgwv9sCoj9Puhy2y90idD7BSNJ5MYhMEpoDZgiV4yfTU2RzJZnSKPlK6lE+ZvyIs2X6hrDGSpdeU4Sz5yjUhQXqLmqbjpVgSVRDKZSFFhVqcOGO1lf3b4Tmu98Fh4CexDlFwT/bCC2vxiE+WcDv7B2BRaaHzaP6zNeIvQ+IyQJEAJIOk2qD5gmmyuaRq0RhVBPiEOp50Sh9OsB06XviEKkn4imUV+KplEnRTOo0+JY+VmmQH1O6zVfMD3oi/gL/QIOugQLL9TZT/ii8LZnPK+zTwRO7vMwWiJ0cpcSAgNDQBLKjg0IlSsmuSfZJ7pkM6VTpHMneiSLJ3kk2wKmSA+IwqhX6XT1x+oGwynDVvaCFTrv+PvhCwG+o/7utUc8d5r3mJk+5ZIIvU/4yMGEwFUToKKo28WBjFk6iymnkhXPy4s1f9euMJ82dfDd1j2+ejwnjLgL/IB/dnIqjKW/6pMRoV81OnIgIdBvBCShGnridGmONFr+OJ2p/KO60fiFYQt3DnryCc1xTwU+az/gcV91FJ4Ivd/KiiRECPSdAItulgYz08Sz6ZVUivw1Rbn+U/1ay1nLDvs31oOu+/kjbjuCmW96+yJC7y0xsj8hMDgEFMEKuThEWiaJZk4oK/V/M3bYzrOdzl+Z9rliJZ3CqqZXPviFCH1wCo2chRC4WgLQnCdNUGcrynRvGu+2nWM7nb+1HnDlaHdrqSuOxhOhXy1+chwhMLgEJOHyNCZX/YbhTvasdbfz3+yT7jXmTrv2isROhD64hUXORgj0hYA4XJ4gm696VrfG+qV1l/Mkf9i50bTfY0Ed6MdHuxGh9wU7OZYQGHwCVLhKx8xRPqppM/3L8pj9DLfP2WXY7ZoFU1r/x9wQoV9CAzP3vkQWrbgEhHwbsgSYEEYlTZDfr64zfmR62H6ePeB+3XrEGQlz1f9gpm80oXvRSHjwCfPwpaNRsP47TNBp8BrG6+91G8w7nCGuAy61rlM3AfYR9vOim5GXvRmm8WY6PLdRsA7AZsWtGq/mFmFW34GY+ecHC4tsJAQuIxAwJWC8NEVeoqzSv216wHaeO+j6lfWAO9XWZZv0vXp7IZopTA5Zi67HGWZ8K+10oNG69boJhkcMEusDTqPpcUcOt9M+37DR7tY/zM027uQjDWstKwwbrW+Zt/P/ND1i/711r2OD6X57pnGjJd+w2TLLss0SZdpkzTQ/zJexj9ir2QfYhfp7+FTDA7Zgx2OTTfp7eSWkT22ibh/wmXsvK2vylRBA0jh5jqJQ+z+Gbdx5dp/zQ0uno8X0mEn+LbEvRGGoBf0eXT9CHwGW17TbJLY+ZFVbH7fyxntsM3Wb2DuN2+27DRst/2Xcwn2jXWH5RrfS/LF2jfn3ujXW91RLTOfkpRosL9Fi1WID1m+yYOinoGkzXVAtMb6hbjd9pl5uPqdbacaaZWasaTVh/TrLB8Yt7DuGe/i/GjZafmd6gD+k38zWs485XPLH5CLUiW4mtyEhMBgERkgj5LmyfPWb+jvYM9YnnF9wna5luqMe1UWxL0TRaAn632Ej9E40CmbEFbr9etHNiteCbwW3mr2XHQsei+4uVqVeoY813M13Grdybxvv5/+u28B+pqnTdyvrDf8ny1N/zeSpsbxYg+m5KkzPUZ6RJiq+kSYqsDRZIYwklCTIMZWixFS6CktiGQz/UckKLI2XY0kMgyVxcixNUmA6U31GvlBzVlGixcxCDVY3GrF+oxWb7uH+bOngOswP2GP099ulCFx/8iIEBpjACDqCDpVlqQ7r1lo/t+52fmU75LiT2+VihYh8AUpCS9C7Q1zoI3x1aF5peIh1mR/kMyy7nHmadVyMdYe90LrDGW9+yNZk3mF/yLDR+itVo/H3TKH6nCxLg5mFaizL02B6ngrTINZYBlNzlYJoxREyfPEdKRO2SRPkgpDF0QwWh9PCMGJxpAyLQmkMnyB02Ef4H7ZFyIR9JNGM73jfAwCragxYv976qfl+dhe7mZ3R73P9DfBNQ5IfpgSkYUq9bK7yCU276XPL4/YL7F7X8+YnuZBRRaPmo2b03pAUeicaBUFE8yqzVrPRsky70vyydo31n/o1lnO69eZuda3upG6NuVu/wXpG02rEqmYjZko0mM5SY2kc47O+MYwgUEGQ0TJMpfrEDqIVxApij2QEyy1Ya9g/yv8AiGJ8D4JwGRaEHCcX9hNH0FgcJhPekijff/C/KIwW3sLDI0yGZTnq88Zt7Gn9ZnYNPKiG6a1Dsj3cCEhmKox0svxxdZPxE8ujtgvcocBnRcsk94xoGvHBUBI6rEEnX2sR6ddZPLrVbJlmmeXn6hrdWQW42/NUmEpTYmqOAjO5akznqDGdoRKsrCT+24IFF7tHtIJQwVqDkAVxy3z/XSZU4b9wGovD/ULv+S5YcjkGUfc8MIQHRY9HIFh+v+CjIA9ysO7nJLHMn+m5yr2KHOMUf3R+uN0yJL/DlQAda5DI5srrlHWmd80POc6rt5v+dfOyMWdRzbWPuns6PLfBirS69abp2tXmvZoW/V9VzYbzinItpucpBZebSpFjKkmOqTQFWExMpyh8wgXRRTOC5YVZewTR9lhmcKsvF32kT+wgfuHds1+PwMFag0sO/wsPgp7vPvcc6uuSOAaL4EEAVhxc+FkUloTR5yVRzGlJNPO5OFT2a1GkfE1AVIASITQ4C2YO15uS5HvACIyiEhTFqlLtO7otlvPj1o7HI2pHXKvmtRFCe/VGDW3tsBexna512jbjm/JSzQWYU0+YbiuBESw4nSwXLDe434LIUxVYHO2zzCBuwXqDSw7f4VMQP9SroU4NLrr/PxA0uOuwLdon4ov/+8UugTp7ksLn0kN9HR4GPdYfAnIxvinAoL5OpSi6xdGyk+KZ1H+LZlE7RbOpJVQUpSUCH7D7lyTcCwKjqAhFsaxA/e5tzWMvXBOhe9HN8ia5wnyfLV27yrxP22b63HQPh1XNBkzPVWI6VSkIjUpSCHVrmFuPSpRjKkMpRMF94gOre0nkwvcekYMwYy5zucGSw38gZn+9WxLhC8KBcKXJ/qi6X/xSQdA+T0Ga6Hf7wY33vc9LImRfS6OZf0kTFe/QKfL7qAjKhkJJz7pe3INk18EhkD5qbNrY5SPrRn466HV0aCarMQSrW4xd6ibDl4oKPZZlqwUBU6lyTKcrfc1YiXIMIpOCuw7NX+lKoQlMCKSB4MDSgngv/w6W3G99e6w7uOGCwAW3XoalsSB2iJrTmEqQYykE6qAOD/VrcM1jZML5wEUXIvHwIIiTdUtjZaepZOXn4hjmLcls5h5JOJ03IVapRwiNGpwyI2chBK6GQDHKRM3o/cEUOnQ71baZzepW4x5VneEr2XxfcA3aq6HdGix3j7igPi5Y01iol/v2E+rfghvur0uDG97jroPgoU4OgoXAG1hnsNrQ9p3IYDEIGNrFM9QYqgJUslyI0tNZKkynKzAN54N3gvwClSw/L01WdNOpyjN0kuLf4kjmXSqR2T1pFt0oC5O5kecnBgxdTXmQYwiBASFQgFJRy+A1r1nusYi0rdpIRZXuuKJMe1KWrhTqwlDvhig5CBsCbEIgLNbXpg0dVaC+DAIEofrq2pcsueDC91j1SFpwrUWzfUEyCJQJwbIosMiXgnTCgwAseQKcS9YtTWTOUfNUF+gM1VlpkvwzaYL8D+Iw+lfiWPk7VLL8KXGCokgSrYDVZm8akHIgiRICA0qgBMWjFvTOYFh0Tb7mFnWTsV3dbPpIUaYV6uHgGvui2HJBiBBVB8ELQodPwRL7hC646/6gmOCS93zvseLg3mcofRH6VDkOgGj4bBpLY3yuek+btziC7haHyc6IZ9NnRLOoLwJC6b9IophfUAmK30ki6C7RdLpcmmpyTPJMmiAJVRjGR48PIIG1Ab0LSeIDTqAIRaLWwenrrqjWxyhrDW8rSjTddIYCi8FNh+BasgKLIYoNdXGoJ/c0e4FFhy6o0BOtp+OLEGCDbqgMlsTLhcg6WG+IoEPQjs5UY3q+ylePFyLrUBVQYgpWxslSCdF6KoE5JQqTPSuKkJ2YNFu2hJpOTYE192TTZGqxWQyLYlz5VFwDXkDkBIRAfxAoQLPREvT2QFt01SLbJGWN/jFlpe5r2QK10F1UqI8n+QNg8XJB6EKU3C90oV0couY9IvfXy0H4ULcGl15oFgPLDgE4f8cVCKxJIqD7KgTrhG6q5yUxzDeSGOaMJIr5pziSeUM6g14knkHq2f1xC5E0hgOBwRiPXoJGqxbrS9XV+r/C4A+oj4tj/c1a/m6lUDe/XOSCuCFSDm8QsSByf0eXMFqw3jA4RVmhwUqI2C+EXnNKTGWoMDVP1U1nqS7QOepz9ALNN9Jk+R/Fs6gXRNOoIwFuScY4j8iCDKj3M+YOh/IkeSQEfpDAIAhdXWNwKxbrX5UVas4LQTdhBFhPsxVEwaF+7g/ACRFzX729J/oOA1FA+EJTWhiNJ02jvpkULMWTplPfiGZS3ZIw+pQ4SvZvSRzzd2kS8xEVL/+LNIl5m56vfF1eoH5RWWMooKIoKYzTJ275D94FZON1T2CAhW5uMo9TVeu3Kyp0X8rm+drGwXILdXGof0OwDYZ/gpijffV0oe+60JbNCBF0cMlFMJBkNo0DZtJYNJ36ozhKdko0k/rDpKnS9ya6JDsCXJLCCZOpsAlTxe7x3HjDbcrbmLH0WMmkSZMmEHFf93cxucCfJDCQQk9Ho1R1ugRltf5dWa7GF1SD+re/C+m3P33iB9ebTvN1bfWN/4b6Ny0E18A1B+tOpyq+kC1Qf0mnK0/QKZpQxJLx3j9ZzmSHG5zAAApdXWnWKqr0x+VFmjOXu+wXBS4MNvFFz8GiyzJVWJan7umwgiFoB6PUhKDdHAX0ljsrjqY/koTJXhWFMetFETIrmbbpBr9/yeVfIYGBEnoHGq2s1dcrqwwfyeb7ZmoRms16rDlYdmheS1Nieq6vswwN39P8HWeglxx0O4V+7kmK0+Jo2afSeOY5OoyORQZExnZfYfGS3QgBH4GBEfoIxWLjFGWV/pdMnua80IfcL3BoDpNCXRya06CZDNq3wSWH36kKnwWHTjQJ8lOSOPk34kjmc2mUbBcVxiSODxY6rpA2bnLvEgK9JjAAQlfUcgHKGt3DTKHmS2GoJ4jcXzcXxpLPFdxwTIPI5ygwlanEdIqvT7swoGUBdHpR/0yep/6tOFVZN27yOFGvr4scQAgQApcR6G+hp6NRmirDImWl7gNwxXt6uUE/c6GjC7jn0N4N1jtNiWXz1cKoNZgtRlGmwzDJhKpGj+Wl2pOyNMXOcfMZ8WW5JV8JAULgqgj0s9BVtSqdqkb3HJ2j+UZoQvPP7tJTF4cJGgWrnaHCsmwVZgrUWF6mxbIcjSB4Olt9gU5Tfk7PVT5Mpep5Emy7qlIlBxEC3yHQj0JXpCtuVSw2rFeUav5JJSuFYBrlH5EGlpvJ8b1lWSoMvdpkueoL0hTFWTpd8TWdrPi3NI75kEpk3pJEyu6aFCG0f38ns+QnIUAIXB2B/hJ6JxqlWqxLUFQZ/renYwyMGhMsOYwoy1LDeO/zdIb6JJWm+pxKlX9KpyjelcTITkhj5Jul0bKySRHMdEmohiZDQa+uKMlRhMB/JtAPQocFFQzbHC51s/F5eaH2jH8hhAtUmvIbKk35FZWs+BeVIv8/SYz815IY+Q5xlKxWPJ1KkE5T6pEGwQKQJJL+n0uI/EMI9AOBvgl9hPnhkHHmR9hk6y77a7oNllOybOU/pImKT6TxzLuSGOaEOJLZIJpJ5wYEBUwb5xECa2RG1H4oNpIEIdA7Alcr9E40Srudpyw77EvYJ+zvG7dxp+WLtO9IkxXLZGGy1IAZNOu31r3LD9mbECAEBoDAVQhd0Rl8q7XD7mb32Dosj9n/rV1j+ZrJ0T4rjqISKTt1+wDkkiRJCBACfSLQG6FjNILzcgHW7VyuZaf9/5kesp1WNRn/RWco7x8/U2Ekde0+lQQ5mBAYQAJXKvQOz2jrPVa1+RHbesvj9k9NW7mzigrdu7JkVam/a+oAZpIkTQgQAn0jAEJvQW/92FRS4Kqb7jPNMD9qP2rZYf9au8ZyUr5Qd1wSRcci4qr3jT85mhAYFAIg9GZB6IdRKQL3+9LLi0Z6OjwTLB1cnmWn4w3TdtsZVYvxn7K5yofGRxJX/RIo8o0QGOoEeoReg7pQBTJdzG6HZ7T5brvWstO+xrLT8YlpG3dGUa57TzZXVTwxdOLEi/uRL4QAITAMCPQIvRY9jUqQBXIMq5paHrFMs+xwdFl2OE4KrnqhrksSLYtBHua2YXBVJIuEACHwLQI9Qq9BL6AyxBt2TRlv6uCKLDsdb5q282fUzaZPZOmqDnEIYyaLGHyLHPlBCAwjAiD0RvQWqkGviNvESdZdjlXWXfa/C676It0f6RTlognTJ0waRldEskoIEALfI+AX+i3Nt/xJd4/pbctjjq91ay1fywt1XVQ0E4GCFbd+7xiygRAgBIYZgSI0Y2TjyLckm2UXjPezF9TNpk+Zeer7RKEM1NdJv/RhVpwku4TADxPIRzNuax/7lnK97ryiUv8HJkVRNS6cTN30w7DIVkJguBIoQjPGNI95a1zFhD+J5omSUagGho2SFyFACFxXBKCO3oTeQovRK6gCcdfVtZGLIQQIAT+Bnua1WvQCKkUs4UIIEALXI4FLQn8aVfo6zFyPl0muiRC4sQmA0H2DWo59qwvsjU2FXD0hcJ0RuCT07w9quc4ulVwOIXDjErgk9AOoHBluXBDkygmB65kAEfr1XLrk2ggBPwEidHIrEAI3AAEi9BugkMklEgIg9CU/PpUUgUQIEALDnQAR+nAvQZJ/QuAKCBChXwEksgshMNwJEKEP9xIk+ScEroAAEfoVQCK7EALDnQAR+nAvQZJ/QuAKCBChXwEksgshMNwJEKEP9xIk+ScEroAAEfoVQCK7EALDnQAR+nAvQZJ/QuAKCCxEs9AS9PaPLbJ4BamQXQgBQmBIEyhGEagF/Z4IfUiXEskcIdBHAsUoFrWgd4jQ+8iRHE4IDGkCRSgZtaA/EKEP6VIimSME+kigGGWiFvQ+EXofOZLDCYEhTSAXFaFm9FdUj8hUUkO6oEjmCIG+EEhHjagJ/Q3VosOoGhn7khQ5lhAgBIYqgTS0HDWiT1E96kJ1yDRUs0nyRQgQAn0hkI7WoXr0T9SAnkH1ZAGHvqAkxxICQ5fAPHQnqkOfoQb0EqonSzIN3YIiOSME+kIgDW1F9ehz1Ih+iWqRrS9JkWMJAUJgqBKYh+5DdegLVI9+h8pREEJoxFDNKskXIUAIXC2BTEHoX6Ja9CdUgqYjhEZebVLkOEKAEBiqBLLR/agefYlq0EeoCIWhdDRqqGaV5IsQIASulkAW6kB16CtUg/6BSlEkCkU3XW1S5DhCgBAYigRA1DnoYVSLvka16HNUgeKI0IdiQZE8EQJ9IVCFxqAc9DiqRSdRDTqFFqEUlI5u7kuS5FhCgBAYagSS0DiUi54Q6uiL0WkEA1zS0a1DLZskP4QAIdAHAreHIlo075bHqNpbP6ZrbzklKb4ln8pBt/chSXIoIUAIDDUCZrPYHBmreragwvJ1UZXlm/xSY1lBgXncUMsnyQ8hQAj0gYDJJLIkx+l/WV9u626qdpyvyOcbs7JUk/qQJDmUECAEhhqBYI4LyJlnOtBQZTvTWGXHhTnm1UnhWmqo5ZPkhxAgBPpAoKMj8baCHPNDjdWOz1pqHN1FOey29ASFvA9JkkMJAUJgKBFY12Kb1NbojmmosB1sa3R+1FrnPJefbXp0TpxWPZTySfJCCBACV0FgW5VhzLoWm26Td3Ll+uWBv13XHnTa2+y60NboxKW51r3zUgz6q0iWHEIIEAJDgYDXi0Z6vUH0HcsCYzesmrxjbbvn3+2NTlxZajtTs8h+oa3BhRsq7U8tKjCbh0J+SR4IAUKglwQ6vJ7b1rd7bGtaXWvXtLn/2N7oPl9ZzJ1NSzV+GB+tebMkz/pVe6MLN1Q5flFZYiFj0nvJl+xOCFxTAmDF16yZQm1YEjRn9dLA422Nzq+rS/gv5801/iE8VN01xSNbHD5btbY43/pRe4MT15Rz7y7MNE4hY9KvabGRkxMCV04AIuorm12O1e1Bq1rrnH+pWWT7LHOu8feRYertU6cqk6ZMkUIz2qjoCENGUS77x9Y6J7jun5QVcWHpZKjqlYMmexIC14IAiHSjN4j2Njsylja6nq6rsP15fprxrYhwTUdgoCLWYAgYf3m+Imer43KzzO+01DjxkhrHyeoyPiM0VHPL5fuQ74QAITCECECT2cr2oKBlTe7VjVX23+QvsP48IU7bFhSkmGU2i3+wa2toqGp6drrprYZqO15S5zq/qMDamB6tCBhCl0WyQggQAkCgo8Mz2tvi1LQ3OCobFzteqCzmf5aWYlgyY4qB9XjQ6B+jNH26yjMv1fjb+kobXlrvxFWLuPX56Rr6x44h/xEChMAgEoBg29olLsnKJa5ZrXWOBxqqbK8umG/eHhthmGowoDFXkpUpU1RsWqLhV9WL+O5lTS5cX2F7uKLQSjrNXAk8sg8hMNAEoMmstcFtb693tLVUO39WVsAdmZdmnOPxTJrQm3OHeBjV3GT984vLbOeWN7lwXYXt+fIi3tqbNMi+hAAh0M8EvN7Qm6Djy7JG19y2BueTVcX8b7IzTWuTYoSOLr2e2DE6mguYk6Q/UlnCn1nW6MK15fw7hVmmyf2cbZIcIUAIXCmB9c2eCe2NzhBvs2tVfZXt1UUF/CNJcfqY0FDJ2CtN47v7hYaG3pIUp99dUcyfgt5xjVX2j8uKzGHQ9PbdfclvQoAQGEACEGxbutSlbm90lzQvtj9fWcy9nJVhqg3vnyGlIxNjdA+VLWS/WtrgxC01jq8qC7msxETmtgG8JJI0IUAIXE7A6w0du7zZMb2twXlfQ5Xj1YJs6z1RYeppGg3qt7bu6AjNlqJc62etdQ4QendJLtuamioXXZ4P8p0QIAQGiACIfGmdLb2x2vFMeTHXtSDDMjcpqf+negqfpW7PX2D5ZEmdU2hiK8ozb00g49IHqFRJsoTAZQTu9YaOXdHiTK+vsP+8MNfyYGqqlR+oevP06Yqs7AzTnxqrHLgV2tKL+Rebq/j41Ut55aYGO0wWSZZpuqxsyFdCoD8IjPA2BtHtDe4FdRX8K3kLLB2pcTrTQIrN7VbY5yToflVTbutua3LhVa3uMxu8njfvXBF0z4Zlnrw72p1BSy+JnizC2B+lTNK4oQmMaGiwa1tqHCvrKvlfZGeY7omM1BkHejQZy2roxBjNk7Xl9lMwXLWl1vnvpfWOsyuXePC69sAv17V73ljvDbxn9VJXziav236H1yN+6SWydNMNfaeSi79qAiM2tdm1zdX2u2rL+VdLci2V/qj6gFtQhkG3Zc41VLTUuP5vebMLlxVYjyXF6V7MmGt8rzSf/bi+2v5ZW4PzzPIm12er29zPrGvztK9pdcWuaptq9Xo94o6SH+9me9VEyIGEwPVEoDMdjYLpnZY2OLdUFfO/WJBlzY2NNXxrlNkAX+/ojLmGiqZq5wfLW9y4uoR7YvZsTbTbwcybOlnVFDZTtSUuWnMgI9X0i0WF/P/Ul9v+1FLjeKut3r6vsdLRUl3KxVRVcay33iP2eomlH+CyIskPRwIlJZ7bWuqdQa31znsrCrlX5qWZcmNjvz2UdBCu69aYcM2exWX8KW+LG1cVcy8U5Rgv7wZ7k06nm8DzjDIwkAkJCVFkpyQZm3LmmR9aMM90vCDb9HxFoXVHVSnXXFnAxtZVWExNTeZxGKMB90YGgQ05BSHQNwJer+e22nIusbHa/nTZQvaXSQm67JCQHx5O2rcz/eTRYyLD1PsqS7gzK1rcuLKE+23BApPjJ49C6Ga7XS+dPUMxKyXJsCRzrun4whzLa6UF7CNVhXzBoiLr1JYyp8brZcfCAJwrSI/sQghcXwQ2bbLfvrTWnthQZX+hopjbk5pkjPR4rllvtNGRoeo9FUXcaW+zGy9exL9XnG0K6i1xu53ShoYo5yXF6O7JTDc8U5Br6VpUxG5bXMrPKytkXSXzTWIye01vqZL9hy0Bb4Nd6m1ypTVWOV4szrM8On8+yw1UG/kVQrqpR+jLm924rpz/sCzfEuq9+vbzmyZP1pkiZ2lz5qQYt2VnGB/OnGPcN2+uqSV7jmHqfCL4KywWstuwJADu6+qlQcqWGvvSpmr7zwuzzNsTEw0g8mvt1t4UHqrcU17InQahN1TZ/1FRzCekp7P9sVb6TTDmfUawfElspPbZ5HjdU3NSNE3zEjVToZstsfDD8lYmmf5PBPLzNbesbA7iltQ57qwp418ryDU3hoWZYPmjay1yyPJNEbOVuxf5hd5YbfuyNM8yv58Htoyc4lKx06cql0bMVj+XEKt7KjVV2zAv1Wgt+YlZcP4TU7KdEBhSBDbXBt/a1mCLWFLj2Ftdwv8sK92SHxqqmTiEMnnT7JmqXWULuVPLfBb9bOECS2nSwAQGRwUGKvmZ05RtMRHa5xJjNVuS47Uz0tN1MGEGidIPoZuCZKUXBGDCRu8SZ1xjle2ZRYXWPVkZxplDcJbVUeEzlTvKFlpPLmty46Zq+/nCPFNtSsqAPoxGBU3TOMNmKzcnRuueyEjV52XNMep+ao67XqAnuxICg0NgTatH1l5vL2+qsj+fn215Ym6S2nWNg27/6cJHhc5UPlRaYP0KhL6k1olLF7JLBmOoqtPpnDhjhrooLlLbOSfBsDY91TTd/JpZcAAAIABJREFUb93/U17JdkJgaBDwetmbW2pturY65+qaRdzrefOtq0OjFYYhKnKANnL2DPV9xXnWL9sb3cJQ1YpCblVOql46WESnT9c6osLUm5MTdHvmJesW5uYOmfjFYCEg5xlOBLZVxY5ZWm+b2Vrn3F5Ryr+WOddUET3050kfETpdcVdxrvWzpfUuDKu2VBRYt2RmmpnBZO/x6CbMnKkuSInTdmbO0a8qLGRd3lDSpXYwy4Cc6woIgMjXtDpmt9Q6jlUVc4dTEvUpfZnP7QpO2W+7hIYoGxZmWz5sWmzHzYsduCTXuj09XafqtxP0IiGYaz45Rne0KM/6ZFkeF1JefvVz4vXitGRXQuCnCXSUeEa3tThDm2odTxflsftSEtjJwymwNGuWbEZeluWNpsU2YQnlxkr7C82LbTNraxW3/vTV9/8e06Yp9anJhnW5GeYnSwptWa1FWlgrjkTl+x81SbE3BFobeHtbvf1IRbFtX3qKMF3yTb05/lrvO3OmwpaTaf5VXYXtwrJGJ17X5jm10Ru4d4M3MG35co/qWoxKs9up26Ojte1ZGaafF+dZGprK3dZQ4spf61vlxj3/msU81dbovquhytZVWegMGU6WvKfUQkPlisJsy0uVJfz5kjwrXlzG4+UtLryu3fPhBm/glrXtgSEw9nywe7IZDIYxkTO1Semppi7oLlxRYAv2+lx5Yt17Co98DjyBzZuDb21vtDc0Vtt/WbDAmpuUdE1Gn/X5QkMmKwNz54Pr7sCFCyw4OU73r6x00we1i/jPlzU4z6xt97y+YZlnyYalkwM3baJgHrlBFdqsabqgOUn6jtz55n3lBbbs+nqTeLDz0GfIJIHhSaCqyjBmRbMrtmWx49XyEn7pwnSDZHheCULTXLKZeZmmt2D9tbpyO46N0hycNlVeFxOuvSczzfRqdZnto9Y6x9feFtcLMKXUlnVBOmhGHMzrdTo1ExNitSvzss3PlyxgS8vKLBoy/HUwS+DGPNeI9sbAkKV1jqdLCrjH5yZqLMPZwkydykQULDD/HpZlaqyy47nJ+q3BwSI5uM5Tp6qtETNUNSlJ+gOLCrk3G6sdb3ubXQ9tXOmeAbPVDvJ13xQfaUjKTDN2lS20bm4os/Kk3n5jCnBQrnr16iBlW71jV0Mlv78ghw8cwp1hrojHzJnquMIcyzsg9OYaB54/x3DHjBli2eUHg0WFGWaS4w2tlcX8L7xNrqfvWBGYs2WNRzbYljUqShuZM9/8WlWRdXdNMeskYr+8pMj3fiEAa6Ata3KsrCm3v7Iw15IwBPuu9/o6Z89WzCnOZd8D172l1olzMk1rw8Ol0KT1g6+EaO3k0oXc3rYG52/Xtwe1bF7nNsACkD+48wBtTIjRhedkml8tXsjtLs8nYh8gzDdmsjD9k7fZk9VUbfvlogKuIj5eNel6IBEVqssuybP+aXkTdIF14cJsy4rYGfSPxhymTtVo8rMsy1tq7K+tW+a54+7VIYGD3e6eEqMLz51vfqUoz7K7YAHnGOxWgeuh7Mk1fIdAZycatazeFdu82PZScS677Vr1HPtOtvrlZ0yUurC8gP0LTDwhCD3HtCwxlIHI9o++QlnJ2Plp5oVN1fYXV7W5D2xeEZT4kJcLGExXPiVBF5433/xyYa5lBwToBjlm8KN8yJ/DkMCSeo9laa2ja/EifmdOzsAtkXQt0MRGayvLC7gPYM64pQ0uXJxnbrsSoffkNSPJHFJVyh1e0ez+5Yb2wMptG6YoBlPsyfG6iLws84uVpXzV4iKe9KLrKRjy2TsCsOBhW51jfW0F/2J1gWP69Rb8SYzWNFcUcR8LQq934aIc89LU8N6tqBoaqnGW5LF3tzU4f712qadt65pAfjCb4JKStJELsy1HqovYkqoqoalzUNv6e3dHkb2HHAGo9zU3OJMbq+2vlxdz5SW+2VCGXD77kqGocO3GiiL2XzDdM7juRTmWlqsZdTd9um1SVqaxvbHa/tu1S927Nq4MDHn0UU2/LfH8U9eYGmeOWZhjOVpVwpYuIWL/KVzk/8sJwISOzdX80UWF3J78LCushXa9vUZFhSsfKi/ivlq5BCaecODSPLbhagONU6YYxs9NMixYXGb7+YoW195NywKT166dLBqsBR1SEk2xBXmWIzWLuKK1ROzX2706MNdTmx58a1ujc3FNhf0XuZmm1ODgazOaa2Cu7mKqo2IiNTuqirmvQegtNY7zhbnmxSl9nNcuPt40o6KA3bW8yfnq+mWeqq2rnMaODs/oi2cdwC8piYao0nzr4ebFttK1a13QekDc+AHkPeyTXtJgC26str9cXsCtnD9fGCo57K/pBy5gZFyUZmtVqe1zn9DtZ/MyTRWxU/q+NFR0tFpWmGNd1VoHYg+6Z9NKzxSvd3AWqsjIsERXl/I/b6txVixZYhERsf9AyZNNCDU3eyYsrXNsrVnEHygt4GCJouvWKsRHq9sXl/KfQB29qdpxasF840JoOuuP+wBc+bz5lvmNVbaXVrd4Ou9YOzkFll4eDFc+LcXYVFXK/665yp472G38/cGOpDHABKCX19I6x7z6KturhblcXnpo/9z0A5ztq04+MUpTXVnCfwhR94Zq+2cl+VxWP8/rjlKTtJGVRfyxFc3u1zd43ZUbN3r0MGHHVWf6Cg6E6amy0ozrK8vY40vrnNMGu/feFWSR7HItCTTVuK1Lau1PlRVw92amaKATxnX9ig7TLCwvZv8CFr2h0n6uNN+8tzDXNLmfVmu5yC4xSmMpymO3tje431jTFnTftnWBroFuggOPIifbsq6hgt/jXeqYTMR+sThu7C+1tcG3ttTY11aV2X5ZmM2GX29t5j9UulFRmnnVJfwfVy1x49oK26mcTPO/87OMu8oK+1/sU6Zoqdx5xqrGxbbXV7a6H75zhWP2hg0h4wayahQba5DkZFmONlTZD7TU2zxk0skfugtuoG3Qm6t9iWtWQ7XjlfwF5vbUqMGb8vhaYo6P0WcuXmR7f9VSD26qtL+fGKd7Zm6S4ZP8TPPewqz+FzuIel6qJaG2nD+6con7+Y0rA3PvXx0sh27GA8UhLEw9rSSP/XlNGf94Q4NdO5APloG6BpJuPxHwNrJ0a539scoStjM728D2U7JDPpmkBFVx7SLbX1e3BeLGKtsHSQm6tbNClJ1JcboPs9INT+TPM0ztbzceoCQlmc0VRdx9bfWOX65fHrRqywa3dSDr7YmJmlllRdyJ5hpHHSywQcQ+5G/N/s8gWHNvizu/rsL+SlkBn5ofOng9uvr/anqXYmqCrq623Pa31W0e3Fjl+EdpvjUuzCVTh0xhWuKjdL9JS9LvmDfH4B6I+fDCghXynPmWFS21jjdWL3Xfu2nl5GCvFw3Y7DWZaaYZVaXcC+0NjjpYwpqIvXf3yrDfu7V1hqy90XmwspjdlJ1tUAz7C+rFBcAUTXXl/D98Qrd/XJrPR0JswuPxjA4O1sREhKmOJcTqNsTGygeEC3REmj/XnFFbbnt5RYuna+uKKbNhPr5eXEKvdk1PMiyqLOF/11BmK23IEebA69XxZOdhSgCs+ZpWd/6SWudLVSV81EBYrqGMJiFac1ddhe2zNW0e3Fzt+HBRsW3W5Us6h4Qok6LC1c/FRBhCB3DM96j4aF18RRF31NviemnTisDkTZvs0oEYBRcVRd2emWbyliy0vlJRYAm+EQKuQ/n+G7S8gQu3vMl9oLnasbmpyj4gVmvQLqb3JxqVHKffXldh+2pNeyBuqXb+tbKMC7ncpQ0JUTLhoapj8VGakthYw/jen+LKj0iI1BkLcyxPrGhyvbZhWeDSjo0e/UBEyaHZLT3F8PjCBZaOikKr+vLrvfLckj2HFQFvkyuprdH9QmuNK3Yggk5DHMbo1Hjd7voK+ym/0P+yKN869Tt5HhU2U7U+NlqzISFi4JdqmjZNLy1YYG1sqrG/tbZt8gObVrqCt20zjPlOnvr8MypK78mbb3m6qoxf1FRghiY+8rpeCUC7ubfZvaVpsePuhiIzNLvcUC82VDI2LVl/sL7SfhaE3rTY8afFxVzQdyHMBPc9UrszLlLjHCTrd1NGkrGsvsrxqzWt7hObVgVFbN4cHID7uStyWqoR5ss7UVnmDCkpQQPaU++7TMnvQSSweql7aluD82eVpbaFSUk33lM9MdQkzkjRP9VYZf9mTbsHN9U43q8tFWa2/VYpTJsmU0eFaw4nxCgGs0ViRHK8flpFCXd0WaPnxU1eT91WL0xo0X8tIjCldeZc46ayIuv2+griwn+r0K+XH9780FtWtLg3ttQ6DtaWWGzXy3X15joSIhjVvDmmFxur7Of8wbg/VBdZPN9NI9ZgGBM6Q/loXJR2VVKSclCXVI4JMZuLcs0bW2qcb61udR/csCowbcs6p6a/AoOxYQZ9zjzLsapCtjQ7e2BjEN/lSn4PAoH2OpdjWZP7xZZ6V1lJiW7CIJxyyJ1i+mStY16K/td1FbZu6BnXXG17u6LE6v6hjM4IUVfGRGoODqL7fikbBjQmJdGUUryQPdHe5Prd+mWBD9zpdU7btW0KBAf7PLIwIUGfWrDA8jQEIokLfwn7sP8G1mD1Undla637YEudw9UfN8twhBIcRM9KSzG8XVHE4WWNMKjF9mZ5MQv18O+9AgMZV9Rs1XMxMerUazWfvdOpMGZlWFrrKxy/XtHqfnn9Cnfp1lVTjH0N1rEse3PGHMMdRXmWjupqFtaG7/PD43sAyYbBJ7ChaYqivdFzuLqEW5mfrqEHPwdD44whU+RTM1J1b5YXcbitwYmri/lfF+Wa7T+UOxi6OjtUvSs+WtMcdY3HASRF6kOKcq07mxfb3l7VGvjYnV5X0l1reKov7e7RoXpDdrqpa1EBW5ad3feJN36IIdk2iAS86ezNy5o8S5bWO7pqSm3B/VXXG8RL6LdTeTyMak6SAero51e2enBxnvXZ1Hi19T+dYMYMVU1shObhpBit+T/tM1jbzWbxuIQYXVxZIXt3Y6X9tVVLXbs3rQhauNEbRF9tdD4hRvX/2zvv+LiqM2HLEJKQQCjB2NiyNJp6+zRVy2XUNZJmNJrR9N7u9N7VPJYsyzbGBgIEBwKhG4OpxqHXDZANkBDIbiDZ9GzKt2TTlkCCme93ZERkRbbVRpbkM/9Mu/ec933uPfe0t2wyqHlPWK08eUi68Ft6i8UG1lNSUpLNChjb0oJH++LCzCcpeM9aLiCnmrKbdW06wv/ffFYEsrQ829O6gTgZkIbNjLbOdtahrq7yaefxJzuvmL83NnLXG1Vcq99FPJaNCt4cGRDsyceruXN5gAOz3462ioMGFfcrhhWSiaeY7Jd02f0poaovLniyL85vmMvNsKSVm71w51n1PHt/QvQzEGHGpuf9qrtrg1Ysnj62m6SOgUjbKu6XtbIal5bpKPZZqZRda9Yie1Nh6t0rhyq3gXBgs8dRUtLaWLZN18s9qpev2DiBc8GyvM4Bc7iBpGBHwk/eGfHxzvjwcwnQO0/dwx7Kxvi/AymZrDresY4Wxq0SydppI+sIhWtXtzUzDso6GHpgM74E5D9BBLG4/AqHkfu1sSHx9/ftqKuei4+7tLWiV6/mvng2RBc6Ad5K+hIK1XwpG+MfCtLENtfKjew6m0v2ebmUcU8ySL0PGrpFxys0bN3wo811pVun67GBiXB7C/PGng5WuKdndtlcZiPUfI7tamfXDSSF7+4brhy9Nj++/Tar4lobWGJVN+s7BgVLDEd8s0K3dA7uC1cSmRD1jK8IARCXjpazkuQ8RVfFwUSA/Nt20KMbeIXN9Rver6laZ6eo6Xvs5sbykY6OipHu1nUbZlXTIh0Mtv5CNHnd3nzV98YGq6pm21j5/NL1vQr2q2YNW3YW+j4s0lUqcjV9MaEuHiKfCLmozZNdMYtc7VIu/jM9Xax7xht6TlRwmHiFLfVlvxOJ1mpKS0um9QlvamDQXW3Mr7YvgZX3k4E1atHa4T7Rj/fmq4Z2756daTPwj9coOI9b9IjHvASnJyfTGf7+CQEwP+9PCEYjPuI2nwPOzz/B8tkeGeveJOjRc6ICbUM+am4su72av557sgdhcwOjTdbBuKurrQLEu1+SL3Vd6flhD/HAnrz4xf1jVcxZGsCsknUw79L2cPYoFIyLl6SCUKiTExifn0fIQyE3PgTn559yOr9XzrwvESA/GM6JCz4n9helgmM72bAdnCXZyBB0tFUcAnvO8zFQ+VSCIn1QKrjm7Vnhz/bvqDTvi80uYk1Ha/kevZJzj1o9npm1SBLCYotCoC9JESkwP3cufIKCogi8CIVi2OoLVN2sB+MBYryhh2jit2YN3naqKDs1NetL21sq7pNJWYozZQo7EzQdHYy18QD19N7hyiNX7xLPyqy1q43pNem4T1rUpetnUhc8ZgkR6Esen5+HaWzTyYalS0jcRRFFILj4YqWM+UgiSH4ILOMiXuKXtJl7Sj6trdQX25orbuvpYnqXulGJx4w6RwfEv9jVJzbMxr1V2lLR2qvgfFvbQwArwXMW5WLASuZPIF9Sck5fXLAz4qPg/HwSzvXr13+5t5t5BASeAA09Bhq649QNHcx325oYu2RSxq6uruJHnJkk7qw/KpXoFYkQ+caubeIH96SwGfs01NRUUEoZ6y2DAd0y3TbjrAWBJywOgXS6/sJcjLov5Cbh/HwScopaU6FWsJ6PB47busf95G9oK9F6upt7y5ZyR0cb4y55e+m0DjCTqjjTH1eZNLxdIznhL4dTVVvz+ZLPzEQgsfiyK9TdrNecZq7OZlu4QBczqRseMw8CmZiYzESopwNuVLfQCQTnIdYZP1UkWs3W9HBeSoCGnhMXIj7iT3Y9oj8do7q60mppE+NoRwernS5yssT5QmprY4sCLuztaIC8qi8yM7NWqZT9uR4Z+6hexeo/GyMPzZf5GTt/MCkwZCL8BxOR8Xho0Nf4kytBkleIdUr2t+J+6qOhtKgQdOEfGlUc7+mivVYj67/c0lh+n7y9PL5ULeQmbjbQaDulzIzPgb01lOLHsj7ykon/TvUua2feaujl3bTU9TuVDmfVf2B+3h8TjqVj5FdiPhLsqcLXcQKrGhrKU0Y15+dhD/5xJsIv+J3YH8wGthoYjZwSkroERIbd1tnOvFEuZ7FPeewS+FMiWV9q0iAgyMh/bs+K1TNZmJNJK/osOvQhs/nsyMG3BC7T/ETI5yUX9MWo+6M+IueFF+1TmC0tvHXdnawjVj3vw6iPKmSj/ILfgX7fZuSCKLCnHfVsra9o6WytuE8mY4Dw0Et+ZbqpacNmrwM/OpgSPbGjX7jldHneOpuZSr2a84LLXA6TMn561yzhD4mQEMvE+M9GaNJwurnnElZjQUUDDz+7ieOhrch/+RzYx6kQVehLCAo+J/GgzcDkzKQySRVjbVsz497uDqZBLVl9wUzOOcPHnNPTw97qcxHfGkwKH8klxTWnWpyrr99Qqelhv67T8Spnay9/hvU8O6tPR4TybIT6ZiZMbFwOPU8xr9KVSeqLgwlSPJASxTJR8juZCP+DqI8A8dwL2aig4LKiNxiVM8s9p1arz23ayrimU1oxqpTO7Jxi6jbDslf1yNmOEI39NJ8W3bI7P56ZZ9rRy+bNl12hVbJfcZm5HdC5ZYZ0z+Rh/Ul+PBPh35IIksiZlONM1n0gL/7CeAPPCCKDScEDmQj/VyGa+MhpQkH4qEI6QhWSIX7BbuTtkDfNbGUa6CPZzLB1tFfc3t1cumzCZVdXr/+yvpebi/jIH+/IVfblk+Nz8H9p7KBx98jZR429SMgMkzGeydv39HUfOCA+ry8h/Gouxh9I+WduMHH6kpfHEeM9eJYUgzTBmSj/cMRL/tJlRf+uVXI/7Gqv+H9NW8u/Z9Zx/ycT5R+L+cljVg2abmsrvXSm2m2uKcPaWxiHZdKK1uXU60ml7NX6Xs4tmYjg3XxC6M3nxV+YTmdZB+smi5ZztcFQNqOV+unKgL8tAoFYjL9+IC54NB3mm/1+bDnMIxeECrhxQQ+ejfGDES/+gNeFfd9uRL+rUbAf72hlPNS8tewHdXWlN1dVXZFzmnj/0ZcQHIv6yA8sJtQ1m/m2Wl16flND2W3yDmakpwf58oIIv0iFNG8pFzrN6IMDScHLu4ZEbfk89i952bs7mRmrgXfI3ANX3hfpssytmkyYvykXo55Ohsjm01l7za2GpXXW/rzg4uGcuCYT4MeDNH7YZUaeM/RyH1V0MXc2SUqNdVXrNjZtKXe2tTCea27Y0N3asMHhc2I/7osLCmEv+Ue3CVHN0lEFmMNu75Gzr1qOoZdkUnatz4WDpBDfzCcJyVTjn7YGpkqr4r5gUzBAaK1/Gd4vrat/FkvTlxLYMjH+A6kABaKWrsgLVSiUrNrRX7c+EyO74wFiZ8iDH/TYsYeMGuRrXR1sV13duo0gagqjpOTzwHiktal8T3ND2b3NW0rJjubygQCN/64/KSiE3MTvrUbktOavU2+n9haGTdnFvulUYaKnnrOUvgMvvIAb/8/+OP+BPQNi1mTX282by0X6XvZrJhNbBFfel9JVO1GWVYMx4Vg2Rl2dDFIrLlPqvn115/elBIJ0mLLGA9T+kAc/7LVhd1l03Lyqm9lRW8tgYFjJCcNREI+9ceuGF7bUb0gSxOVrZNKKKyNe8g/9SWHB78J/adTwTsiNfiLO6b81NVW0dElZ98g7NlQux4dpPe+yC3uVrFDUS7y7PS3akZy0OCeRcC8zqHkvB+xIF4zzPv31P+O/ZmjxRX0J/r19YSoSi+EzXmA644KfRoBcSLh6OCesy0UF0agP/4bHjj/qMKM3Ww0IrZKzhWLxeB656QxYzmltZvgkW8ue3bKxvJHNvrRUo2DeH/WT7w8khQWvHfsPnYoJGuusXp3N5Wh3J/MBtYy9dbn2ehIJ42JtL3dvMkT+aCghNMdixy0DwXRP18vdRzuQVtjQZ3VbLN7BmQAfB44syQDREwot76wbYDgJMpAMZYjORJAc8zmx+2k7epi2YKMqFaJvlTAQNrvkc6eiq27DL21uKD+8dXPZtfX168pQdDVH38t5KREkj/UnhAWPA3tZr6qYtTdaWxt+qULGOqRWsuU2yfL19NpSW446TLyjuYTgwVxCjEwM4VUqHuVyEWuAKfWp+ML/zhCB/qRIlo1SR1NBHAxHl+1FstkEF2cChCbiIfcH3PgDHjt6h0HDzSukLCnYJpqpbq1NFS2NW8te3lJ/hREkaBAI1gtsRuSVdPh4Q/c58CMWLQJixc3qBXKMd7Qyb5Z1VjgVkuUdY629ndkRcuMvDSYEfZnM2Zlhd1YXfykcPJgSJDOx5W0oA4bCMS+uC3mIx61G3r1GDTegbGOLamrG83jPeHER7HG3NDKulmwtvW9T9XoQ1HFVw8ZSlcuC/hA4s+RiggLtRO8wq3lzWcs4V9bBHOvuZGTUHcs7YSV4AGpVnP50mHppKCnoXO4jwaXQDosqA9gTzcYFN6XD/MHlbCgTcGN4PEA+TFvRG1QdjJrTDc9PBlXWykCatpa9sGVTWQZYhoHj2hsqUl4H9huwtZaOCAq0BfmKcobmr1PrkXUwYxoFd+dy3GKbqkt9PbPMbUWP9MX4j+TifO7EEH7qcfD7EiAQpsVlmQh1NOLHLcvVUMZmk3w+6SfyIRo/6rURknlYnq1qbWCEG7eUPbNxY3njRODHrvaKPUE3/h5Il5wIUgWbHhmTzzHfWEsLU6/oZN4gkzFWgpnxKnkn2xGkiV9m48LBdHp2ceGXwO1/9oiQjJHNiRDxbIwmWidu7OWmfdxDNUW8xHNuGxK3WOZudWbYVHZJk6T8gS2bNlwHFuE+4bCqt5t9XdRL/Kk/IShEvOTHZi0329M0tzRLLQ2MrfJO5t2KzjLxcuM8nbw1NRVr9BrOnakw9Wo+Lao9lZfbdOfD3xaJQDLAj8d8xJEAvTwNZUA656SfutnvwO50WQiwEn7uXNHJpaz6loayb0s2rv80XjvYXzdouLfF/eRfc3FBIeAk/mrSso2yk2RRPV3dra3lFb3d7Pv0PbwllmX1dJKf/P9mCaPW68IfHUgKbtidFq5bjjYCJ9duBfyTV2OfTQTIr/tc+DecpqUf/WQqcrB3mwpRlpAHf9Flx3vn60Mvl7LSzU2Mx5u2rq8bjRBrrhkTiUdyInvcT/57JsL/O3BPpe3oWzYje84BJCQS7IIeGecbJi3P6JCvkKGuuOQ8pYxrjgeolwZTlOtkji9Trx/8vkgEdDrhukSQfMrj5A3Yl2GmDbD/Hwvgj3ps2FVKZUX5fLC5XBVrtCrO/XYj8vhIVrDturGavdddWfvINTur39nRX/l+PiP6OB0WFFwm5G6lsmzOYbaAb7q8i503ajgjdh1rSSZfnAvH1o2sy2163tXpqODlwaygKi+ZWRTZudQFz5klgZgXq074yZe9bkwDcnDN8vQzengsVnd+OkwOBmn8YbMe2TqH9YVVhw6pz79hfxXzxr01LbuHKncMpgQ/3Z4V/XrnoPh3w32ivw0mhR+nglQhHeYXQKrkZJD6yKjmZpvmOD+fANbaWC4FDxXrCouFLmthb6Xt2I9zUf6Ny3kHZ+I6rZj3VEhoSQTJJ5djRpZMkN8W9xGPBh2Ek1af3mAD+Nt/fXf9hWN5EfvKfK1kz7DQMjZQuW20X3RrPiP8Vi5KvQfcTwMu7I9uK/Yjix75Vo+c86K8s+LXfgf6EWjoYZr8X20vu3uqXfxsb4immoo1PTLWYauOE3aqV47JMdhbV8rZO2M+4kf5dJXy2mVuZTnb67okjwcGJqkwf3fcT94acM/eyutMKuW1IYyol7zb5yRucJrwEyKr5vOSz4AkFAdGxVdcOSqi9m6vbLl6R7V6OC2Ibu8T7hxKir6WifCPJALkyzE/9UrQRTxp0nK/q1Zw/9rVyXq4UVIx0CQpM9XXl7XwRVcdwftqAAAgAElEQVS0KTqZT6XCxxMreh3o6zoVbyEcUs6Vd1YkjFrejRYtc9YWdmeS/enqlkhYbLsRuWswyb9/YECEwr310xEr8v9qtfiiZJA4HPYT+YiLWFPk6has+EOH1OeGPWQ8SBNP2S1IVz6Frf3qWC1jV75q496dVcodWYF/OCMc2NFfub8/IfhGKkw9lAZx6gPUPXE/cVvcz9/ts2F9ZiM30NuDKJslZZskW8p2tTWXv9W4tbxn3boSEEFl3JKuu5u1wW1GnhlMCf8xmBIVXBb0DrVsPNLpvPVpkTAEOhX3Xpue0zKPff95y1GEAs6RSssbQzT+dj5bmR/zwYgzRWA88yLDHgEnHqReDDhRl0N+2YUzP/PMHtkf41dnooL74kHqYD4lTo72ifqHMqLrMhH+Pakw+VgiQDySjvCvSQX5+8JefNBtw0Igo4pGyauXta5DJJJ1l5WU/NMlFew8dEmZV7e3lN/XtLkMm6ydVsGShmnih/msqJCJ8j+yapDcfOfnE+WDYa6ik3XAqGYPmUzoFRO/r4T3+vrLLjRqeLtTEeqtXf0iGTSPPYNXNRMlpYkA+RxwK1wOEWWuv15ywe58XXU+I7pjMCl4JxWiXol6yaMxP3F1yEPu8tmwuNWAOnVqTqdCwWZVVa1eS1ElX5zonU+GWtnJYXa2VzzX3Lihf/PmtcDxZfwFVsdBI0xFqN9tz4kLUR/5vkHLUzMYJZ+fOGa+7x0tFS69mnOfwzzu8rpsnYmm49AmYbE9NvzJgTj/0Xzunx5u0x0LfysegVXpCJWKeckHgjSyZKOSHjgg+8LVA5W8nflqxeiAODeUER1Jhql3Yl7qIa+D2KZX8TRdLUxOdfWFwCb9vLng6u5iaaUtFa80N5R3Tl5kAxFe7QbkkVyM/8FIv7jgc2E/1ig5W+ZjkDNVPjCf1fRw7rPoeL00vW7aoItTz1lG31epFCxFxEv+cCAryudXUJyDZXMNQiHp55IB8paIB99P09iEqeeSkB/MwW/dI1k7MiDo2NEvzm7Pia/NhKn7Iz7y7VSI+jNtR29QdFVUs9mXful0vfXpFAIBEuTtFdc1N5TfX1+/Fp98fI+M1ehzEG8NpoSFfEZYcFvQo6oFtk8HC6I9naxRi4abNxqXTbz3yZhO+RnDVl9g0vF2ZSPUWyM5URccwp8S18L/CYIDxHzkU34nHlOrZx6yeOEl+WeJB3aJL7pyuLZmtE/sGsqIru5PCh5IRamHsmH+oMuE+nwu4qkQTT7ltyMbF2qqAcxRO1oZzzZKyvs3C/85bAcPEG0PO54IkL/enhWNu6Zatey9bW3lCz6Xbm1idumVnDvNOl7lSlyhbmpicp0W9Nv9Cf6RgYFK3krU8Z938RL7FHJRtckg/98Cbkxz2iSBiyD7nrxk7XBOHM7GBYcSAerRiI+8JewhQg4Dr6GtrvTSvoRQmgxR3wx4CUfIOO5fviBSSVsZ2pbG8lclm8q6Jg/b1eq68+1a3i2ZCPWX4T4wP6c+0vdyPGCRaUEqnlRIff2Gdapu9u02Hc9B06e3B5h06nL5eG6nlOkLecifDKXFgyD67nIRfNnL6bHzepNB4v4znRoZRGW9Ml9J7NlW3TeQFN7ntWN79SqOqr29gjfhTz6QpCrSEeoerxO/yaCaWa6zmVwgNYZ9tq2p/LqWreX31deXnTBs7+5gkm4r+spAUnhsOCcq+BzY70EQyckPg5nUMcNjzlX1cLx2A7LPY1s4/WZY96IcBhY5dSruvmyEemMoCVfhFwU6qISmETIeILoSNBdsNZ2RFxjC7e6vqd0xIL55e058dzzI13Z0rF47OdxTMtn6xVyC6gvR2FMWLadrlnHUT6lXYx13fWsL44lmSfnA5NV2MGzXKdnOsBf/GbCGA/NzlwX9trKrvGhhsBVSNsug5d7kMCKtK3Ueu3Eji3Db0ce2pQX3DUTgEP6UN+dK+TOfz5+zO19TO5wT3jWQED6ci/O7kmYKbIVNfq3Kxqj2uJ98nnZgCb1sYR9K0lZWY2tz+fNNkhOH7RiGfdbYy/lqMkT+CWyrgWCQVgP3NkX7eGKCyfIt2GewKNer4OadZmy72cxcUoujC6UkGA11S1naaID47mBKmI1G4RB+odguyXJAI79uZ3XdtpzwrnSIOhz2kB3TbS2B+PLpkODukAe/1awl0PmusE+BcU5Ha8VAa2P5HZs3r/3USAbIZlKz2C4T8lw2KvgILMSFPcTHGgUrsWnTRUXNKdYjY28FKY1cJmwzaPhT5F0RX4GxEjCkyUb4b+wcJLdOzfayIpSESpSUgFzj+0eqmrenxXeHPeR9Jj2vfTof8jwt/kIyTOSiPuoZtx3pWuDQyKsMBvISaTvjgFLGOpAOEC278lVbxvrF6rG80DuU4l8b9xH/PZgWFkAMd6sR/VFnO7utSPPzT28L4KeuUbG/7jBzA/OJkvNpgUv0Q1tDGR5w42+ODlXdsDcvPmNTxyWKZ/mLtS9fd+nYYCU9OiC6Nxmmrtf1IhJgBjqdZpmIcEsyRD4T8OAZWj+7ITvolQuH1Ofm87IvjI2Rl6RDNaX5nBC7akdN7a6hSunOgSr7jpx4KOInv5kKUa+P9lceHdtW9cxwTvSDkZzo19szwr8OJAXHQG8e85Ef6lWsPZKa9aXTybnQvyk6WDaLHrnF60SJBR7BLLSo8ynvPLMWGdueEb47lhc1HqDFczJ0mo8A8NwiEQCNfNdQZSCfEzw7mBCNeuw4djL/cbudvToZoq6JBcmvhTw4GFaPm4aCBvzcc5LPgPRK+/bhl/YnhOWDAQwfHqyqGskKJEMZcWfEhxuiXsKXDlGpZJDKJ4L4br8b+2rEh9+TDJFH437ylbAH/2nIg/8h5Mbf87nwvwXd+Ad+J/aBx4F9QFvRv4do/BgIApnPiAouG/ZfvV3MpoXatz8d3tZuYoNJx7vZbUG6YurlFR/gdLpN/l8u51GJIPX93dsqvwp79clklvHn265r+vLokDjUnxA8lQ0L8sHgeDz0E+y6QSMG1nr5JHV5iMY8ITf+rSCNDg9E+F35XGXHUJZSJf2UM+YjUnE/ORz2YVd57diNbit2p9uKPkDbkYdpG/KI04w8YjdyH3WYkCMOE/qA3ci712bg3uq2Yl9xWrArbQbkKo2KfYe6m/3brnbmax1tFTe1t5bvkbZUjLY3V1zZ3Mw46DDxfjeYFBZAIEizjnews2nu0WTmcNnOUatYQYcJyQec6Lwi5syh7sU85Ty3Gdk50id6d3S7sAn26ouJfoHrAo0X+Lknw2Q8F+U/HvbgV8eCROXIgJiVDYvE2SjVCPZUt6cE6lSU74jQWF8qTF4bpsk3nWbkp3YD73m3FX3CY0Med1mQx+1G3lG7EXnUakAfNGu5B8065GsGNfsqnZIz3NPNzCg6mT5tD0un7GR2NjczJJtq19Rs2bJO2LhxAwsEegDGLiCZg0WHGLS9nFelrUyfQLCWwWBcfPHq1asvIMmLLulqqwhEaPznwFstESL/pu9lhSSCixfVwKOrjS2y6JG73XakbSXnMOvuRsh0hHoT9Oo7dwo/dSZa4NsQFreQBIDhC1hA25kTrgYRXHIp4dZ0SGCMesmv+5zYz2gr+o7Xhh4KurGvhGjiRpDJ1G1FHqat2FG3FT3qsCBHnCbkSMRD/NZjx36o7+XepFVydvcqmdtUcnZc3lXhVsg4KmljeePWrWurKivXEBIJg/GJMwuY539mJnPaUKjmS0E3vs9hRq4Fq+uTz2ltpb5o0rJvysaoP4/kRAWvA/u1Rsls/qTshcR1yrLU6tLzdSrONXYjkvPblnc2l1MpCqZDLiu6Y0dO/A6cq5+K1Bn8DxiygESGfUkRlQqQHbmYwBrxEX0BF3atz4ndkYlQzyQC1DsuC/JDq473nF7Nu9+o5t4O8pCb9bz9Jh03r1Gw0j3d7IC8s9yh6OCo9L2ckNeBvW43I7mWLcAjbf2XS0tLQBy7E4b581B7lcWC9nht2CGHFWkF+c8nlwWs4Tx25NXBlPDYUArsnSPPdktP9E+ffHwxP3e2s9VmPfc2mw2vWsm24T09KJGNUG/ugivwxbydZlY28CbL5/FLcwkhlg1T7ekw3x7zEX1hJ359wDneMx8Bnl1OM3rIokEesBp4P494iA+9TvxFlZwVbG9mSJqb1wk3Va/nCtGK8o3Umss/sRn/dLV1X6zu/BCNjbps6EGHiTue72xm0s38KLWau95h4N7jMKHDUwM9gMakU3G8CT/1C7Dano4IPtIpObskknFLvZlXskBHbt5cfoVBzb7dbkGsC2nbv0DiLVwx4pLzaDu+Y7hf/M7uIX4D3FdfOLSnLWm8YcfqLs2FhFjUR0rDbsxLm9A9bgt6u9M0vuD1TbsZOWw1cG81qTl7dCpWWN7J0oFhrsPEG/Y68O84LegRjYotk0hWX3DaCktKSlIhanPAiT9t1yMe9QwCPc6kzMnHgIYMnEacJu6TJj3aQotP9F1vAr7net692Rj//ZE+UcHvxP+kUrA1n4woJhe1WJ9XybtYKauet99mQDmLVemZqEfbgxK5mPD7o0Pivbt2iS86EzKcFXWC+fWujPiigbQIjfmp9gBN+GgruhsE+LPouI8a1LzH9ErOPb0K9n61nBnpkjK0bU0VmzdtKmPi+JcuBYEYwPnZON8R8ZDf9LvRfb3d3M0n2yOfChW4zEY8+PW0E79Br+KCfGQLNVT/tCrajJWBh5NNi4zpdDyQSeSEV3cno83vxN4GQ/ahjLBgNyI/6Ghl1Eyew59wwiJ8aZFsqNT38u51mhHZSt5qA9usAZoYHekTfWfXcB25kqcqi3DbTF+F309s8LvwXo8VHXEYeHdatbxHDL3so1ol+6BSztzf3c4INzds6K6uXs8XHvfXBoteJ7zyCfFlg2mhN+QhnnWb0d3a43nDZ2TCCR4yITdm9DrxJ8He8dR58wkVzfELCAnlsyO03YyM9+ZTLdzA/3oVd3s8SP0e2LZnY/yCqZd9J/BVn2OVC3IacB/WKTkjLhsyCh5UC1LoEi3EoudRfUnR41fmhc0gu+8SFXP5iQWSH3ic6BarDtlnUHMe0SnZB1Xd7H2dUkYUNOyNVesFYvF4EMV/adiTtY0FSTIT4Q+EPPjTNj13rKtr3M1yRo0clBOL1a0Pu4l77WZkr667OFlLEgFhOW1DH7RokFGdfMO/9OYgTznYd8/FBB+O9IkLYTf+oVLGCYnFl5zxYaSiiy0x69CDLtvKtX8H9wHo1VMhfivYej20Qu38J7ebRfkccArLXSaENmu5h9U9nMOdUoavvvqKSuR4LvBPF8hOJ8xwRsiP+6ibIh7yiFXPTbQf9+6acSMH7phRHx7wO/GHLAZOs5RdcsIq+Onqn8n/oLcOewiv3Yg8pe7htExnjadRMTvCNP4DMGQHbqk2I/LfHa1lLYu9rTadPiRZdolWxTlgtaKBwDyyxE5XNvxthRLI2ySf9zu4m0B+LF0v96hKxtwHUvjOdC49GUsmLuQng8TNPgcOVtt1Cglj1kYlHg9R6XdgR502NFKsbCWgN/c40AeNau6YfLreXF13vkHLvSoVIt8Dw/a+hKCg62U/I5FsALbmS+G1qrubabfqeDc7zeP270tBJijDUiUQpsVlTgvXZdRyDmsUnPu72ircjRuvACaWM+6BJ3RzGEhmiMZu9Fqwxwy9PLV8DjHhbTbJ56N+YofHhh42adkgoMOCL8CB3jzkJT02I/KERslpnq43l8nKKxwm5PlslP8RsIaL+shjKhlrR03N5UsmoQWwKdCp2AcdRrRnOnfeiesC389iAqAX99mwzSBMEejFlTLm/paG0jn14gCj3y+5wOtC+91W9CmdGjHI5xhDLe0hKiNe8mmXFQsbOouTySPqFTB8dvSgVc/N9fSwLp/uNuhsqZAHXNg7wK59ICn42G5C/kfZVd4zEcZqunMW+zc2m/05pYIz6DAie2krwVrs+mF9S5xAJiwu8zh4TtCLq7uP9+Ib59iLA1XBCnnYj7d7bPhzFi0vJZONL9bNmgLozSM+YjTowg+7XIi4GL05sLP3uQmv3YQ8YjSitfkpIwawsuu2Yri+h/31mI/8IwjpnAhQf1TJWYckdevAFt94SqZZK1ekExSdiNhqRO4OWLlNKyx9U5GInQXFgqyhUa+gPuzBr7IaeEeVncz9DfPoxSeQ0TRJBhzEvWY95+sqGRsEU5zTcDvoISrDNPEUbUUDBkNxevNEAB1fadf1ckeVyn+GaAYNPEGTSNRP2sJu7E6vE/1tOkx9DHp0qwn5ecvWMjOIRT6h81J5B9uOejWnH5gHu1zUovjGLxXdoRzTEMgFqr8cD1JyrxO/1WXB7lWpWO7m+nVgD3bWc/HJxedy1V/2O/F9TjP6mLqH1T7XII1gpT3kwkZ9Tvx+pwUTzvVhMVm2qZ/He3MH5rUZeU/r1ZwWsG8OGnjaR/FAAw/R+O1+B/ojlwX5e9CNjy/ApUL8grqb/XhTzeXUUuvNJ/Tr6mKLTFrubW4TLodz9QkqZ9k7WHiKBcVk1E/00zb0sE3H2yWTMbZOF6Zptmg+yV5qd1nQF4watkMqnXtc9YAJFQU9+JOgN7fZZr9SPxPZvTYBw2NHHzBpeMMg0GLUT6BRL+EIutDbnBbkXZOW93elnPWRoov5ccCFF8Cw3efEP+zpYsc3kcWNCzcT+U92DOjVFZ2cQbOGs9/hIJknOw7+vkIJgKF6KiioDzrxr3ms+KM6DSfZ0FDBW6h94GRAWOe2o08aNcjerq65RygFc8uAG9secBH3Fqs3B72x3YTQNgPyb04j6vc7cLfHjt5h1vL+S6Ng/0HWwXy3uaH86Y11pY8qupi/SwRJsAhXsBqRnyjaGZKFYlasW625mUn2drO/ZjVxVH41tuSmGMXSG5ZbUlKS9FKX+13YNpuB99VeOVO5adP4vHdBFpMSTmF5wI3dajEgh2Uydu10W1QzvQh20Ju78Sd9DrxovblOzlvnAIEpdNyfGjTcZ9UK9htKOfsVaQvjni2bSrfVVK438/nrNm3eXBp0W5Cf9MX5hVSYX9D1cu5raysF/ulL/XWuQsbUm7Tc671OPpj6LMh1XupKQ/nGzUjxS43acf9qbCG3hfJ58ReCNJZ1mpFnQfaU1tY1U+Ouz5g/GHbSNiwfoqnDURotyr45CCJp0nKDZi3vp71y1q+6pBUPg+QMm2rLZGJyHbJ6dQnoAVcBG3KFjHUtWG0fSovAsP1Yd2dFH/B/n7FCZ/BA4Gln6GVf5zQhnpXs7HIGEZ89VR83HSU7fA78myYdJymbZ/IEh4nHCzjwZzx2JLnQoYxBrDmPics3qjn9qh729+QdFa+0NDHSm2quEIMQUVOvmkSyXmDWcV7NRKhjIJyzRct7r6WRtaT2zqfKPPU7yPRq1iH7nE6cPXXrcOqx8DskcFICfhsm8Lvw+xwm5CqFYgMw0pjzEBGsgsf9pNttxV8CSRMXMqKqy0xVmDUsd6+Cfaini/WOXFrxhkSywQbiv51EuXM62stTfif236CRpyL8Qq+C9VLzlnXLahgMwk1plNw+u5kbA+GxTqIr/BkSODkB4NkW85JjPif2iNWAbpnPvBzUkk4L10W8xCGHGd2vVs99MW+yxGC7zKZFa7Uq1g6ljPVsR2vFEwo58yWlnLtt8r755HPA582b2as1CuYjiSD5IRi2+134sU4pa69YfNmCp0OeWvdCf+9uZdRYNLyHaRqrWciH50LLCctbogSiAbIuFiCfCboJ70JsgaVDVK/fRTxl1y6Mvzlo5AYV2qHqZt4l72QdaGlkeLs7GGFDL+dRvYYtO1VWl5aGDXK3BflPsAgHjGTAsL21qaz3DEaSmfNdAGwZtD2cHbSd17+iw03NmRA88aQEQG+eChJXhr3EvR4HPu/YbYVCYVUmxh+Le8hrg67xeO4nrXsmf4CYYhYtJtX1cI50Slnf2Fq/YTMIV2U1oCMmDedOvWo8/fG00wzQMOQdFddFvcS4yWsqQhWUctZLmzatn7eeM5G9GMco5ax6nxN7cCAkntf0qhiywTKXMAGwZx73k08HXCS9ELHbQAjobJS6PRvje7M+8mTz5hkTUStYYo2S/aBCxryjs5G1EewyWNTc9SDklVHFDigUJzfCkUgYAouG8zJYhAN+5z4n/lFXa/me5ThsnwAGkhaCBdOoD5Pm1TAyywQX+H4KAsd7c3J30Evc43MRC2IKCjKipsLkQ5mYoNtmY3z+FNWf9i9g8aZTsm/o6WI93NnGapjYSrQYuT1mDe/xXgUiOVUW0o52Rtjnwn4FFuGA37l5fLW9TM1glMxLrtMKXtwDznGZ0JvDXiJP08wzHhGnuKrC0heEQCYkkkX95AseO94LVnUXotBMgt+Wi/IPZ/141XxW7mkaKzP1cu9QdLEeb2tiNkvZx2OyGzrJS8xa7j0aJXuvUnnyRIjAKg/ElU8Fqf8DvXk8QBYUXayjtbVXgHTMy/pl0vA0ATf6qN9ObFjWikDhi08gn6/5UjpM3hJw4TfZbONx3xak0kSQikS95N0BNwa83eb0AsN/s5Y7pOhivdjeXK6kqH8a7hg0nC0mHfq0XsVSnCqwpFrO43ms6Iu5mOCj48N27L/amsoDn0SxnZNcS+Uk2iwuA/4DMS+/Gq6+L5WrskTlON6bEy8FHIRmoXpzsH+eiwr2x/zU3jA9tyim441cx44p5ezX2xoZmc2b107O0bXKouP2mbW8O7U9rOlCP626cqS6YteAyL1zoPK+kX7heyP94kIuLihYDNyH2tsrwPRkXl59S+Fygu3PIE3GvF4Wcaqpy1KQFcpwBglkMuKLMhHylgBN3OK2MLnzGWJPVoOmxRfFg+ShEI2FnepSEP991i+HiWdUK9gvd7Yxtm/ZMh5++VMfeJtNcLHFwD2sV7Ozail74gFwzq5t4rJrd9TKrttdvesre2qfunas5mf7Rqv+Otov/ngoIygEXPiHWgUnJJEsbvLEWSs/ixO8XupyaA47C2Bn46GgN4/5yBe9DkyzEG6tEwyzfhE7FeQ/6XcR2rmMErxOrFqtYD/XKWV9pb19HfDGO6H3tdkQiUnDe1Ddw2rcFsbK9o+KO6/eUTV29WjNk1ePVf9w97aq94ZSwn/EA1SBtqEFlxUthD1kQa/i/LKzrbxhankTcsN3SGDFEQBz80xEcEvAtbC9OQAFsr4kItSjYT+xcbajhEQEr3JbsYeVMuaRxi3lG//FOk8sPs9qRHeHPOQzYwOVe3bnKx/eOVgJDGHeC3vI950m5A86FfcdlZx1tKWR8YK8k/nngAsrgEav6eEckUjGw0WtuOsJFYIEpiWQiYlkUR/5otu6sL05qCwRJCIRL35/2Du7MMU6Ha/S68QesuuRh7u7mc3A22yq8ENpYdNQSvT6YFrwx7CH+InTgnzHZuDdpe5hjyk7GXR7S3lHff362ob6dbwmyYaE24z9EmRgCdPER6pu9hDYf55aJvwOCaxIAmBuHg+Qt3oc+M02w/hK+7QWZXNRHni/ZaKC/akItTcQQEFY6Rm9QJIC2ordYtZy39aoOKqpU4l9O+rWXz1S5d45KH4xE6X+y+dArzMqeb2KTpa4qamMWUNcvmZyplaxmHlRdwfzlpif/AsweXVZ0D+rOjiqiT34GQkFD4IEljMBn5PoDLqJ551mTD21Qc1XL7VafFHMS94X9mHxmWYYSafrL0wEiD6nCf2uSs5JSSetsF+fl1ywf6xSvydf9UB/gv9tjx37jU3P+3pPTwX/k0Y77UOqrnJttVHDfj0ZpD4Gq+1GLe/7rQ2lZzR54nzZwvMhgRkTUKvrzvc5iZu8DuxWh5oHFrqmbSgzLnDKgQYlWp4MkN+Meij9TAIZAnn8TiTptqGvmzWcdGvreB62c/btU59/7Z7qzVflq78ylBK+lgrxD4ZceK9ew1JolajoNIt8qxo2b4h57div++KCQiJAFnq72fc1No673U6RGH6FBFYggUxQTPqd2Mt2Ay98Kvvwuapu1bJbwUo+SJw3EyOOkBOX0Vbsda2Sc6uslYEAD7WrdlRtvGq48qodfeKXcnHhwYiHcIJY7GDODizdPlmgO+kDCgzb5VLmPREP+T4YtvsceEEhZQ1KjiePnKtq8DxIYHkQAEYVUT/V77Fhj9mM7NpibDNpVFyrx4m9FHAgdaejkgiLN/md6JO6Xu7hrnZ23VhWxL5qZ010tL/yW6kw/98DbnwoQKMiqfRSEGDhpA17aj01NetrDWr2G2DYDhq6Wcf7U2trWe8yt22fqib8DglMT4CmSSREE085rWhar+cWZfXZbUH9tBV54pNor9MLAlI82ZGNATfxmEnHu1evRlvGhqqMe/KVDw8lBd9K+Kg9HifW1NOz5nL1lD30kxY46Y/mrRtiPjBsTwgK6YigoFay35BIrqiczcNiUnHwIySwvAhEfSTttWP/bjfzGotlMhmhib6Am7j3VDbufj+xgbbwbjdoOK8FnOjInu3iG0b7hC8nAtR9XgeuMhrZpTMZ9k9Hv76ed+H4sN1Lvg/COQNDGZWMdaD+eDKL6U6Bv0ECK4dANCq4OOaj7nGYkQNq9fwDQZyEzKpEiL83EQDBJqiK6Y7J5+suTQTIEdqGvhvzEW/m0+K3chH+s/EA5XOaWcR0e+fTlXOy38Cw3azlvJEMUR+Dhu4wo/8AeeBrasaH/yc7Df4OCawMAmEP2e13Y8+7zIhSPY0hykJoCba7/C707hBNjAYdvHVTywSNfDAjHspnhD8dTAk/GEwJ306FyTE/zd/0SeiqGc/Dp5b9yfdV0mZGdHzYHhcUslFBwdDL+WVHa1nLUk/QcBJ94M+QwMwJSKU1XwrRxNdpO36D1couWvpdiQS7wGfDHnHZkKxa/amzybigY1nykh394qE926t+unNA9PtMjH846qd6vRbu+rkO03otCmQAABZQSURBVKch8HmVnPWNmJ/8K+jNj/ueM1/cUldKTnMs/AkSWFkEaDN3k9eBfsdrJY0LbSAzmZTdzl4d8eKP0w70hNBOY2ObLtk7XDW0c0j8021J4b9noqIAmMPLxOu+sJALZBIJY61Vy302FaI+Ar25w4z+raOVkaeoNdPmSJ8sO/wMCSxrAupDJefGfOR22oEfsRpYICf5fIfHJ+XhsaGceJB8IuLFVRPho268ZgsHeJZtzwjeiIfIr0e9Asknw/RP3U5PWuAs/5B3sNoDbvztbJQqRH1koUfO+mFLQ+lWOGyfJUh4+PIj4DWjRIjGn3bbsHhPD1LU1EMOB9Ea9xEvBb14I0iLfP2uqo178lX352KCt4MeLGnRIly1uuSzxaAIIr0a1JyrY37yf0FyhmSQKkS9+M9CbrI5ny/5TDHqhGVCAkuGQJgmsyEaf4S2c2qKncLHacQNbiv6XZcNUV67s1a5c1D8ZNRP/NJh5mbVau76YuREnwDd1cXc5LMjryXD1LGQhyxEvURhW1r4YT4jvD/fVyVYwHWAiSrhOySwdAiAvXO/B7eARITFlipEEz6vHftRJko+OTZU+f1YgHxf18P5Rnv7eCrnBR+qT+hTU1OxxqBh3xTzk39KhamCUcst9Mg5f/e78I/zWdGft2dFB1NRAWzsE8Dg+8ojAFIr+wzkJcUykJlMrC8uHBzJiX+TT4vej/jIfxjU3MNdbRXVGFac4fpE3a3N5Q6fHftRKkx9HHQTBXlnxasNm8ty3R3Mp/wu4v18RvTnoaTgUMovECwGhwm54DsksOIIfGV3feXuvPjJkZzog0SIPGZSIw90dbHrit3IGxtL1xvVnIfjfvJvyRC/YNRw329rYURAcoatG8vrOqQVB2k79uehpPAvmQhxT5AmybmY1a64CwYVggRmQ+DQIfX514yKDTsHRU+lI9Sf40HqHy4zeljdU/xGXlJScp5MygoFnNgvUmF+IeghCz0y1rNbtpSDDKnngIfMli2lHHkHe5vbhv16KCn8Uz4j2J1P/6sxz2x0hsdCAmcVAYuav34wLkiODoqej/qIRzx29Ld+F/aa1chtKtbq+mTA9TXra0067kuJAPkPMDc3a7nvd7ZWhASCE6K8rmpqqljT1c6Mu6zo231x4S/GhipjO3PVRd2BmCwn/AwJLEsC+bz6s18Zq5VszwkPBt3490I00ZcMUvmIl/xlwE3c7rUhjGIrdjxxInN3yI2/l47wC0GaLPTKWM+0SNYLplvdl0i4l8mk5VK7EXk2E+G/m8+Jojtzxd1uLDYDWD4kUDQCX91Xt/7q0ZrE2ID41Vxc8CRtwa0xH9rcn+A/nQiSH/jt2JUmU3nRc463N5XXuYzotxMB6qM06M31yD862pnxTZsuOmlCR/Bw6OjgbDFrkTsjXuLNXFQQzcHGXrR7BRa8DAk895zkMwd21zRcNVJ111Ba+P1EmLo66MXrga16PiPYnwyQPwl5yP/z2njDZjOrqCanwKZe08PdF/YQ72Wi/EKIJgrdnawfN2wet4I7IQb8VNQYhn1WIWWzDDreCJhmZGP8GGzsUynB72clAdCLX7OjNj7SJ341FaGe8boJh1lNVQAjlMGkSNMfF3wv7CGuD3mw18M07jIa2SAiTNFerU0MnceK/CAVpo6B3tyi5xXaGstvEIvXlc20UnUHY62ulzMccBHfycVhzz5TbvC4FUggn5dccMPeWumV+ap7hnOC55JhapvPhtbK5ZddCGzmt20Tl+UzwociHuKIw8JpjvrIhxM0qQiFjmc8LQYStQS7wKjh3hHxkf+XiYDeHGRHZf5kS31px2xDOSvbyq/QKbl5j4P4TjrCT+QT4qIbFRWDCSwTEpgzget316J7R6r3jQ6IX+uLC+6KBchumxpbO2FwAhbk8hnhQDpCfdfnxA0ufcWapB+/LR7mN0gkkqLZltv0XCRMY6/2x/kfg4ZuNfAKrc3lN1RVXTqn1MEdEsbaXjlnwGXDnk8GqFQsxgemukVz/JnzBYEnQgILSWD37voLrxmt1O3KVz6xLS38djLKHwx5cP7UYBUDcUFHf5z/WthL7rbrWBuSSeqLCT+1F6TwnXgYLKRcE2WZDTx1JkL9OA9ynQfJglLO/t7W+nUt8zHMAdtvBi1H6bGjh/1O/Gseh5BfTB0mdIHvkMCiEwC52G64qr5233DVNSM58Zu5KP8giEqjntSLTwgFIsXks4I70yHqqM+F1oK5eixWd34yRKX6whSRz5cUy659lduKDA2khL/flhGC7Cs/bG8q91cj6+e9Jw789NU9vHaHGflmwIncFQ/xhdARZuKKw/dlT2D/fsnF1+6qlV2Zr7plR1/ld/qTwqfiPjLjcXD508VvAymXtueEzr4E/5VogG/2q7ELAIRDh0rOzQRJMpstA9tbRRn6KhSCiz1W9IF8RvjB2KC4YDfyfgiyoy5UgwRJIXoVFa12I/Z4yIPfPRjnC4Fey/4iQwXOXgL7x6qY14zWGfZsF9+5LSV6KxkmX4j6qFzcR9VaLOM95LQ3+PBgFb4tJXomHqBucJnHg0x+2qhB8oViNXJwpXo7KzaH3Pibw1nhx3uHqwt+F/afWhkDxKf/VIb5XlHwcFPIQGNHn4r7ybvzyY3FHKHMV1x4PiTwrwQOHKDPO7C3Dtm/qzo+NlD1zPaM6N9jAfIhlwVNOSxIHWjgp5qbhkLSz41khcO5GP8Z2kG0LoaZ62QttCq2LxmkfrE9Jy5cNVpTSATJN9wGDrCEW9AXaOyqbkab04r8W4QmUgm6+C6+C6oALOzsJQAWq1JBMjuSEz3fnxB+N+Yn7gh7cZ1bz8bb2kovnUnWlr6ooLM/KXw9HSIzID7cYtKkafF5Ni3vxlyMD/zLC/t3VBf649TrYKGwGHKAxq5Vsq/3ufCDQZpEilEHLBMSKAaBz7gdmDHq44eCbqTNqWaxxceDM86oLpBqeSjNvzMRoJ4OOYu7sj6dQPI2FtttQV8aSAo/Attqe7ZXFbalBG+lg7yiZWDp6WSr3Xb0qZCb3Hqqkc508sLfIIEzRWCVWo1falMwLv4kSeGs5NieEclSEeotrwNLGAzjC26zOn++B6u62bIQjb8zvq3mpwo7+kWF7VnRjzJh/qZirfJ3dzBJtw17MeAkzDPJDDtfHeH5kMAZJTC+nZYW3h7zU4dttvE5cbG2z06qp0HDGUwFqd+B+XncTxbyGWEhnxX9Kujlt83lwXXSiib9IZGsvsBuQu/12tBhvw1bO+kv+BESWFkEwJB1ICX09Sf4ryX8M8t5vtAEQPRaq579YDbK/2CkX1yI+omXcjH+D/IZ4e+CblxVxCypq8x6ZMzrxG8NuBHuQusFy4MElgyBdJribcsIn4kHyFv9Thb7TAimlLFraRv23YHUeC9ecJqQI34H9vxQWvCHuAczzWatYbbymzSI3ucgHox5iKKtBcxWJng8JLCgBIBxzLaMKJ0Ok98LuQilTcL4/IJWMMPC1EqeM+olfg5W2wcTgoJNj15tNyLX5DOi/476KJdasnrcaGeGxc3qsJ4udh1tRV8IuIkutXrcTmBW58ODIYElT2B3up43mBI8G/QQX1Wry6fNjlpsJcDUwaTlXJ0KUX8c6RMX0hH+MU0PO2PR8Xq3ZYX/MZQSRKI2xsXFkgOkebIb0Mf8biLidOJgGxK+IIGVRWC4vzKaiwofD/v5DcVa8DodMbm8Yo3LzHssFxd8ONIvKoQ92B9VCpZC3V2G5TP8V4Yzlel8rHgNEESMtRrQm30O/EDQVbR006fDAP+HBIpHIJ8StWcS/DaQW714tZy6ZK2SXRt0Y98dSh+fn7ssyK96u1kbbTbBxUMp4f19cX4mFCqu8Y5JiwR9TuyRKI2KFtLc9tSaw38hgUUikE7XX7gvVnr+mby5LVquKxmkfr49JyoMpYQFtwV9SttTjoIhfTJA3pgMELmIi1hTTCRqGXsrbUef99NE60I50BRTXlg2JLCsCIDG7LLy9udi/P/d0S8uZGOCj10WbEwvrxhv2NmY4Op4iPDFijx3Vio5TNqKPh32kfa8/7i33rICCYWFBJYyga4urMxjQ58YTAj+DvbPkyHq/2gLYgC+44cOqc/d0Sf+6vYBypkv8tQC7ONb9NzHnGZ0ILTINv5L+fpA2SCBBSHQ211hidDEj7dlRIXBlKDgsWG/MSq4TcABJ0OLLxrpF97enxYY0w4eiGFXtFdpacn5BjXnsNPE2+VwwCwvRQMNCz77CMhk4i/oe9k3pULkuLdaX0xQ0Pdyvtsi2TBuuALSMGdC5IPJAKWjafEXikzoXK2Se7vLjO7321lzik1XZPlg8ZDA8iQglbIxpwV5ORfjH9ueERWiPrIga2feWitYO54Fxufg8XIxwb3psLBpERbIVlkNyAHajt8At9iW5/0EpV6iBNQytjPsxX+2LS0qbMsIjznMyJ+bGspoNvvS8Zjxg1mReDgnumcwgVcthgpOM7pjPHCkDeUsRn2wDkhgxRNQq+vON/Ryb0qFyT8P58SFXFz4kUbJekpSPz5sHw9xtXuoqmkkJ/xGPklQiwHEbUHiPgdxC23jwiAUiwEc1rHyCaja2LjbgrzaFxccy2eBNRzxsULO2r1ZfNmnOd0GMyJTKoLfmgjh2GIQcZjxgMeG3emxL059i6ETrAMSOKME1Ao2cGL5GWjkwCLOaUbf62xnKie7oyZDgmg8SNwc8VG8xRDWouM5XGb0MYd53IttMaqEdUACK5cAGLZb9LybMpHjw/ZsXFDQqtgvNG0uPWGI3p/ijwwm+NvTaap0MWgYdVytWc97zqhh1Z9JS8HF0BXWAQkUnYBKxsY9NvTV/k+G7UEaL3R3MceqqlafEOFlpE+0L58WhnNFtnOfUFij4CqsOt5zJh13M2zoE1TgOyQwNwLnqHuY8YiX+O/xYXtKULAbkfe6Wsp7Jg/b98XU52/PCG/OxShnMV1UJ6vQ0cFotxuRZ1228Ya+6KG0JssCP0MCy5qATMK9zKTmPJwJkx+C2HCZqKCg6WG/sPn4sP3TJA1SKXt1Iogf9Lsxo/qTTDHFVryzidnsMGMvucx4Y7GCURZbB1g+JLAkCMg7Klo8duwH/XHgkiosBNx4obudOVZTc/kJ3mkuF1WajfMPZqJoZzFTNE+GMu7BZkVf9jkw6SIY6EyuGn6GBFYUgXM0CnY+5id+D4btwLbdrOP9v+aG8hNW24HGuQCfO5wT3bsjIS5aqOepZLU9BBr2Ek9GfJQ8D0NKTcUDv0MCMyMAhuN2A/fRTJQ/PmxPh/kFpYz5wuaa8dX2T4ftoLR8lBKNZEUHh7Mi8cxKn/9RHR2MtVEf8Ug6JOyNHffRn3+hsARI4GwjoO7ibgq48TdBcAnQowfd+IfyrooBsXjdZVNZjPZVtuSzwtvzSdEJW25Tj1vI7/J63oVxH3koExMYrkxSX1zIsmFZkMBZQ8Cg5tATkWQGUoKC1YD8SNHOkJSUlHxmKoSol7TFveTdSS9FTP2vWN9tNsbnQ278NtqBB85Epppi6QXLhQQWk8Aqg5KzKx4g3wMho3JxQcFm4B1USDewphMiRBOJqBe/NbGIyQ/FtPg8vxO70axHshMRbqaTDf4GCUACJydwrknDuSUZIv+6PSsupMJUwdDLHW1qOnG1feL0XJQf74tRqXRwUYNAnBMICOtcFh4FevcJWeA7JAAJzJBAayv1Raue+0AmTH0IevSon/pI08tKbNo0fTLHfJZq3JYRb1rs+G35PPZZWlxy3gzVgodBApDAZAImZfkVdjP6ZC4m+Afo0aM+4j1DD1PJZpd8bvJxE593p+svTCbXfBEarkwQge+QwDIgcDw9MfJqX0zwMejRwx78p0bluPMINDVdBtcPiggJzIhAj5S91WfH3gar7WBrzWNHf6BVskGyBPiCBCCBlUJA3c3qCXvwd4dA2Ki0sOAwId9TK8bzsK8UFaEekAAkoFdyPBEv+Yv8eFjn8WwsDxlUTBibDd4akMBKIqDuYW+P+alxG/f+hKDgsiDXdnWVrl9JOkJdIIGznoC+l319Mkj+CSzEZSJUwWzgjbS2rrn8rAcDAUACK4WAOo991qDm3JUM8d8fzooKySBZMGq5Q9LNa1evFB2hHpDAWU+gpwn5stXAeyQTpT4EK+6xAPV3Yy8n1NzMvOishwMBQAIrhUBnE4dpNyDPZ6OCj0BDj/vJP1r1iEoqZU9rLLNS9IZ6QAJnFYHuZibpNCOv5qL8j0FDD9PY7/VqTst0XmtnFRioLCSwkgi0t2+oclvxNwdTwsKO3Lgf+m8dBlZDSUkJtIpbSRca6nJ2E2hoKKv3WLG3BtPCws4BcSHiJd9zmdEOMXQeObtvDKj9yiJQJVy71WlG3wY9+ujxhv4nm4GntkmgK+jKutJQm7OagJi/bpNJy3urPyEs7BwCPTrxgVZZ4arnXXbhWQ0GKg8JrCQCGLa2WtvL/X5fjD/e0GM+/Jimmx0TCC6+eCXpCXWBBM5qAih6mUglZ72RjlCFnUOVhVSIKui6K/qqqy/88lkNBioPCawkAmz2pbi8o+KVZIg6Bobu2YigYNQi21s3QhPYlXSdoS5nOQEUvaJc0cF4JhWm/rFzUFwYSAgKNi33qra28k9zoZ/liKD6kMDyJ8Ci1lwu76g4kgiSH44OVhYGE8KC3cQ90N26bsPy1w5qAAlAAuMELrvssgulzeX3x3zE30YHxYVtaVHBY8XuVMvKKyAiSAASWDkEPtvaUHZn2EO8v2NAXNieFRWsRuRITweTu3JUhJpAApBASdOWDTcHaeIvoKEP58QFqxZ5QdZWhkM0kAAksIIINGwtvTboxv440i8u7OgTF2wGzmsqecWi5VVbQSihKpDA0iWwpW7dmM+B/s9wn6gwOlBZcJoRGAV26V4uKBkkMDcCDfWlKa8N+w2Yn4OG7nGgP9HKGLUlJSUnpEueW+nwLEgAElgSBLbUl3k8dvQX+aywsHOwsuBzoL8y9bJBJtVzl4SAUAhIABKYP4H62iuMTjP6E5AbHRjNhGjitxYtVwpdVefPFpYACSwZAgLBmm67gfcucFUdG/dgI/+gV3FUEuiqumSuERQEEpg3AYK4vMWs4/5nf1JYGAM9uof4m0rOdGDY6gvmXTgsABKABJYGASG5dqtexX27L3G8R495iY9U3aywWHwJjAS7NC4RlAISmD8BilpTq1Eyv5eLCcZ90tMhqmDoZWfa6kovnX/psARIABJYEgRqatZiagX75Wz0uKsqaOgWLSfV1gYb+pK4QFAISGAhCOB46aUaJevhTIT/4dhQZSEdpv5uN3CDMInDQtCFZUACS4fAecpu1k3ZKP8vu/NVhb44//c+F2Eym6kvLh0RoSSQACQwbwLqLm51Mkg49+RF9EBK3LozgIBQUtAybt5kYQGQwBIiQNMl58XUdefv21d3/oEDJefBRr6ELg4UBRKABCABSAASgAQgAUgAEoAEIAFIABKABCABSAASgAQgAUgAEoAEIAFIABKABCABSAASgAQgAUgAEoAEIAFIABKABCABSAASgAQgAUgAEoAEIAFIABKABCABSAASgAQgAUgAEoAEIAFIABKABCABSAASgAQgAUgAEjgrCPx/+zMuasKiKfoAAAAASUVORK5CYII=;" parent="1" vertex="1">
          <mxGeometry x="220" y="430" width="130" height="248.56" as="geometry" />
        </mxCell>
        <mxCell id="aSYHZ8J5is49GkjM08Yo-11" value="Whole plant structure" style="rounded=1;whiteSpace=wrap;html=1;strokeWidth=2;fillColor=#FFFFFF;strokeColor=#999999;fontSize=14;" parent="1" vertex="1">
          <mxGeometry x="100" y="450" width="100" height="30" as="geometry" />
        </mxCell>
        <mxCell id="aSYHZ8J5is49GkjM08Yo-12" value="Water and C flows" style="rounded=1;whiteSpace=wrap;html=1;strokeWidth=2;fillColor=#FFFFFF;strokeColor=#999999;fontSize=14;" parent="1" vertex="1">
          <mxGeometry x="140" y="390" width="95" height="30" as="geometry" />
        </mxCell>
        <mxCell id="aSYHZ8J5is49GkjM08Yo-14" value="Stomata regulation" style="rounded=1;whiteSpace=wrap;html=1;strokeWidth=2;fillColor=#FFFFFF;strokeColor=#999999;fontSize=14;" parent="1" vertex="1">
          <mxGeometry x="340" y="390" width="70" height="30" as="geometry" />
        </mxCell>
        <mxCell id="aSYHZ8J5is49GkjM08Yo-15" value="Photosynthesis" style="rounded=1;whiteSpace=wrap;html=1;strokeWidth=2;fillColor=#FFFFFF;strokeColor=#999999;fontSize=14;" parent="1" vertex="1">
          <mxGeometry x="360" y="450" width="100" height="30" as="geometry" />
        </mxCell>
        <mxCell id="aSYHZ8J5is49GkjM08Yo-16" value="Light interception" style="rounded=1;whiteSpace=wrap;html=1;strokeWidth=2;fillColor=#FFFFFF;strokeColor=#999999;fontSize=14;dashed=1;" parent="1" vertex="1">
          <mxGeometry x="250" y="350" width="110" height="30" as="geometry" />
        </mxCell>
        <mxCell id="aSYHZ8J5is49GkjM08Yo-18" value="Daniel, Thomas, Mona" style="text;html=1;strokeColor=none;fillColor=none;align=right;verticalAlign=middle;whiteSpace=wrap;rounded=0;dashed=1;fontSize=10;fontColor=#B3B3B3;" parent="1" vertex="1">
          <mxGeometry x="96" y="480" width="110" height="20" as="geometry" />
        </mxCell>
        <mxCell id="aSYHZ8J5is49GkjM08Yo-19" value="Daniel, Thomas, Mona" style="text;html=1;strokeColor=none;fillColor=none;align=right;verticalAlign=middle;whiteSpace=wrap;rounded=0;dashed=1;fontSize=10;fontColor=#B3B3B3;" parent="1" vertex="1">
          <mxGeometry x="130" y="420" width="105" height="20" as="geometry" />
        </mxCell>
        <mxCell id="aSYHZ8J5is49GkjM08Yo-20" value="Gembloux" style="text;html=1;strokeColor=none;fillColor=none;align=right;verticalAlign=top;whiteSpace=wrap;rounded=0;dashed=1;fontSize=10;fontColor=#B3B3B3;" parent="1" vertex="1">
          <mxGeometry x="250" y="380" width="70" height="20" as="geometry" />
        </mxCell>
        <mxCell id="aSYHZ8J5is49GkjM08Yo-21" value="Daniel, Thomas, Mona" style="text;html=1;strokeColor=none;fillColor=none;align=right;verticalAlign=middle;whiteSpace=wrap;rounded=0;dashed=1;fontSize=10;fontColor=#B3B3B3;" parent="1" vertex="1">
          <mxGeometry x="300" y="420" width="110" height="20" as="geometry" />
        </mxCell>
        <mxCell id="aSYHZ8J5is49GkjM08Yo-22" value="Daniel, Thomas, Mona" style="text;html=1;strokeColor=none;fillColor=none;align=right;verticalAlign=middle;whiteSpace=wrap;rounded=0;dashed=1;fontSize=10;fontColor=#B3B3B3;" parent="1" vertex="1">
          <mxGeometry x="350" y="480" width="110" height="20" as="geometry" />
        </mxCell>
        <mxCell id="aSYHZ8J5is49GkjM08Yo-23" value="Mutliscale" style="rounded=1;whiteSpace=wrap;html=1;strokeWidth=2;fillColor=#FFFFFF;strokeColor=#999999;fontSize=14;" parent="1" vertex="1">
          <mxGeometry x="100" y="580" width="70" height="30" as="geometry" />
        </mxCell>
        <mxCell id="aSYHZ8J5is49GkjM08Yo-24" value="&lt;font style=&quot;font-size: 14px&quot;&gt;3D exudation&lt;/font&gt;" style="rounded=1;whiteSpace=wrap;html=1;strokeWidth=2;fillColor=#FFFFFF;strokeColor=#999999;fontSize=13;" parent="1" vertex="1">
          <mxGeometry x="120" y="650" width="90" height="30" as="geometry" />
        </mxCell>
        <mxCell id="aSYHZ8J5is49GkjM08Yo-25" value="Solutes in roots" style="rounded=1;whiteSpace=wrap;html=1;strokeWidth=2;fillColor=#FFFFFF;strokeColor=#999999;fontSize=14;" parent="1" vertex="1">
          <mxGeometry x="350" y="650" width="110" height="30" as="geometry" />
        </mxCell>
        <mxCell id="aSYHZ8J5is49GkjM08Yo-26" value="Root growth" style="rounded=1;whiteSpace=wrap;html=1;strokeWidth=2;fillColor=#FFFFFF;strokeColor=#999999;fontSize=14;" parent="1" vertex="1">
          <mxGeometry x="390" y="580" width="100" height="30" as="geometry" />
        </mxCell>
        <mxCell id="aSYHZ8J5is49GkjM08Yo-27" value="Soil chemistry" style="rounded=1;whiteSpace=wrap;html=1;strokeWidth=2;fillColor=#FFFFFF;strokeColor=#999999;fontSize=14;dashed=1;" parent="1" vertex="1">
          <mxGeometry x="170" y="720" width="100" height="30" as="geometry" />
        </mxCell>
        <mxCell id="aSYHZ8J5is49GkjM08Yo-28" value="Mona, Daniel, Tobias, Deepanshu" style="text;html=1;strokeColor=none;fillColor=none;align=right;verticalAlign=middle;whiteSpace=wrap;rounded=0;dashed=1;fontSize=10;fontColor=#B3B3B3;" parent="1" vertex="1">
          <mxGeometry x="80" y="610" width="90" height="20" as="geometry" />
        </mxCell>
        <mxCell id="aSYHZ8J5is49GkjM08Yo-29" value="&lt;font style=&quot;font-size: 10px&quot;&gt;Magdalena&lt;/font&gt;" style="text;html=1;strokeColor=none;fillColor=none;align=right;verticalAlign=middle;whiteSpace=wrap;rounded=0;dashed=1;fontSize=7;fontColor=#B3B3B3;" parent="1" vertex="1">
          <mxGeometry x="140" y="680" width="70" height="20" as="geometry" />
        </mxCell>
        <mxCell id="aSYHZ8J5is49GkjM08Yo-30" value="???" style="text;html=1;strokeColor=none;fillColor=none;align=right;verticalAlign=top;whiteSpace=wrap;rounded=0;dashed=1;fontSize=10;fontColor=#B3B3B3;" parent="1" vertex="1">
          <mxGeometry x="200" y="750" width="70" height="20" as="geometry" />
        </mxCell>
        <mxCell id="aSYHZ8J5is49GkjM08Yo-31" value="Daniel, Deepanshu" style="text;html=1;strokeColor=none;fillColor=none;align=right;verticalAlign=middle;whiteSpace=wrap;rounded=0;dashed=1;fontSize=10;fontColor=#B3B3B3;" parent="1" vertex="1">
          <mxGeometry x="350" y="680" width="90" height="20" as="geometry" />
        </mxCell>
        <mxCell id="aSYHZ8J5is49GkjM08Yo-32" value="Daniel, Ullah" style="text;html=1;strokeColor=none;fillColor=none;align=right;verticalAlign=middle;whiteSpace=wrap;rounded=0;dashed=1;fontSize=10;fontColor=#B3B3B3;" parent="1" vertex="1">
          <mxGeometry x="390" y="610" width="70" height="20" as="geometry" />
        </mxCell>
        <mxCell id="aSYHZ8J5is49GkjM08Yo-33" value="Rhizosphere" style="rounded=1;whiteSpace=wrap;html=1;strokeWidth=2;fillColor=#FFFFFF;strokeColor=#999999;fontSize=14;" parent="1" vertex="1">
          <mxGeometry x="300" y="720" width="90" height="30" as="geometry" />
        </mxCell>
        <mxCell id="aSYHZ8J5is49GkjM08Yo-34" value="Magdalena, Tobias, Daniel, Ahmet, Deepanshu" style="text;html=1;strokeColor=none;fillColor=none;align=right;verticalAlign=top;whiteSpace=wrap;rounded=0;dashed=1;fontSize=10;fontColor=#B3B3B3;" parent="1" vertex="1">
          <mxGeometry x="285" y="750" width="110" height="40" as="geometry" />
        </mxCell>
        <mxCell id="aSYHZ8J5is49GkjM08Yo-36" value="Shared repository" style="rounded=1;whiteSpace=wrap;html=1;strokeWidth=2;fillColor=#FFFFFF;strokeColor=#999999;fontSize=14;" parent="1" vertex="1">
          <mxGeometry x="510" y="365" width="100" height="30" as="geometry" />
        </mxCell>
        <mxCell id="aSYHZ8J5is49GkjM08Yo-37" value="Everyone" style="text;html=1;strokeColor=none;fillColor=none;align=right;verticalAlign=middle;whiteSpace=wrap;rounded=0;dashed=1;fontSize=10;fontColor=#B3B3B3;" parent="1" vertex="1">
          <mxGeometry x="535" y="395" width="70" height="20" as="geometry" />
        </mxCell>
        <mxCell id="aSYHZ8J5is49GkjM08Yo-38" value="DUMUX" style="rounded=1;whiteSpace=wrap;html=1;strokeWidth=2;fillColor=#FFFFFF;strokeColor=#999999;fontSize=14;" parent="1" vertex="1">
          <mxGeometry x="619.38" y="560" width="70" height="30" as="geometry" />
        </mxCell>
        <mxCell id="aSYHZ8J5is49GkjM08Yo-39" value="Stuttgart" style="text;html=1;strokeColor=none;fillColor=none;align=right;verticalAlign=middle;whiteSpace=wrap;rounded=0;dashed=1;fontSize=10;fontColor=#B3B3B3;" parent="1" vertex="1">
          <mxGeometry x="610" y="585" width="70" height="20" as="geometry" />
        </mxCell>
        <mxCell id="aSYHZ8J5is49GkjM08Yo-40" value="Parallelisation" style="rounded=1;whiteSpace=wrap;html=1;strokeWidth=2;fillColor=#FFFFFF;strokeColor=#999999;fontSize=14;" parent="1" vertex="1">
          <mxGeometry x="560" y="645" width="100" height="30" as="geometry" />
        </mxCell>
        <mxCell id="aSYHZ8J5is49GkjM08Yo-41" value="Daniel, Magdalena" style="text;html=1;strokeColor=none;fillColor=none;align=right;verticalAlign=middle;whiteSpace=wrap;rounded=0;dashed=1;fontSize=10;fontColor=#B3B3B3;" parent="1" vertex="1">
          <mxGeometry x="590" y="678.56" width="70" height="20" as="geometry" />
        </mxCell>
        <mxCell id="aSYHZ8J5is49GkjM08Yo-46" value="Python binding" style="rounded=1;whiteSpace=wrap;html=1;strokeWidth=2;fillColor=#FFFFFF;strokeColor=#999999;fontSize=14;" parent="1" vertex="1">
          <mxGeometry x="560" y="500" width="110" height="30" as="geometry" />
        </mxCell>
        <mxCell id="aSYHZ8J5is49GkjM08Yo-47" value="Daniel" style="text;html=1;strokeColor=none;fillColor=none;align=right;verticalAlign=middle;whiteSpace=wrap;rounded=0;dashed=1;fontSize=10;fontColor=#B3B3B3;" parent="1" vertex="1">
          <mxGeometry x="600" y="530" width="70" height="20" as="geometry" />
        </mxCell>
        <mxCell id="aSYHZ8J5is49GkjM08Yo-48" value="MODEL &lt;br&gt;DEVELOPMENTS" style="text;strokeColor=none;fillColor=none;html=1;fontSize=19;fontStyle=1;verticalAlign=middle;align=center;fontColor=#80FF00;" parent="1" vertex="1">
          <mxGeometry x="235" y="280" width="100" height="35" as="geometry" />
        </mxCell>
        <mxCell id="aSYHZ8J5is49GkjM08Yo-49" value="&lt;font color=&quot;#66cc00&quot;&gt;TECHNICAL&lt;br&gt;DEVELOPMENTS&lt;/font&gt;" style="text;strokeColor=none;fillColor=none;html=1;fontSize=19;fontStyle=1;verticalAlign=middle;align=center;fontColor=#80FF00;" parent="1" vertex="1">
          <mxGeometry x="410" y="275" width="100" height="35" as="geometry" />
        </mxCell>
        <mxCell id="aSYHZ8J5is49GkjM08Yo-50" value="&lt;font color=&quot;#4d9900&quot;&gt;MODEL &lt;br&gt;APPLICATIONS&lt;/font&gt;" style="text;strokeColor=none;fillColor=none;html=1;fontSize=19;fontStyle=1;verticalAlign=middle;align=center;fontColor=#80FF00;" parent="1" vertex="1">
          <mxGeometry x="510" y="221.04" width="100" height="35" as="geometry" />
        </mxCell>
        <mxCell id="aSYHZ8J5is49GkjM08Yo-51" value="&lt;font color=&quot;#336600&quot;&gt;LINKS TO &lt;br&gt;EXTERNAL&lt;/font&gt;" style="text;strokeColor=none;fillColor=none;html=1;fontSize=19;fontStyle=1;verticalAlign=middle;align=center;fontColor=#80FF00;" parent="1" vertex="1">
          <mxGeometry x="630" y="160" width="100" height="35" as="geometry" />
        </mxCell>
        <mxCell id="aSYHZ8J5is49GkjM08Yo-53" value="CROP" style="rounded=1;whiteSpace=wrap;html=1;strokeWidth=2;fillColor=#FFFFFF;strokeColor=#999999;fontSize=14;" parent="1" vertex="1">
          <mxGeometry x="680" y="330" width="70" height="30" as="geometry" />
        </mxCell>
        <mxCell id="aSYHZ8J5is49GkjM08Yo-54" value="Mona" style="text;html=1;strokeColor=none;fillColor=none;align=right;verticalAlign=middle;whiteSpace=wrap;rounded=0;dashed=1;fontSize=10;fontColor=#B3B3B3;" parent="1" vertex="1">
          <mxGeometry x="680" y="360" width="70" height="20" as="geometry" />
        </mxCell>
        <mxCell id="aSYHZ8J5is49GkjM08Yo-55" value="Field setup&lt;br style=&quot;font-size: 14px;&quot;&gt;&amp;nbsp;RWU" style="rounded=1;whiteSpace=wrap;html=1;strokeWidth=2;fillColor=#FFFFFF;strokeColor=#999999;fontSize=14;" parent="1" vertex="1">
          <mxGeometry x="746.88" y="510" width="100" height="35" as="geometry" />
        </mxCell>
        <mxCell id="aSYHZ8J5is49GkjM08Yo-56" value="Daniel, Ullah,&amp;nbsp; Deepanshu" style="text;html=1;strokeColor=none;fillColor=none;align=right;verticalAlign=middle;whiteSpace=wrap;rounded=0;dashed=1;fontSize=10;fontColor=#B3B3B3;" parent="1" vertex="1">
          <mxGeometry x="761.88" y="547" width="70" height="20" as="geometry" />
        </mxCell>
        <mxCell id="aSYHZ8J5is49GkjM08Yo-80" style="edgeStyle=orthogonalEdgeStyle;curved=1;rounded=0;orthogonalLoop=1;jettySize=auto;html=1;dashed=1;strokeColor=#336600;strokeWidth=1;fontSize=19;fontColor=#80FF00;" parent="1" source="aSYHZ8J5is49GkjM08Yo-57" target="aSYHZ8J5is49GkjM08Yo-59" edge="1">
          <mxGeometry relative="1" as="geometry" />
        </mxCell>
        <mxCell id="aSYHZ8J5is49GkjM08Yo-57" value="RSA parametrisation" style="rounded=1;whiteSpace=wrap;html=1;strokeWidth=2;fillColor=#FFFFFF;strokeColor=#999999;fontSize=14;" parent="1" vertex="1">
          <mxGeometry x="710" y="630" width="110" height="30" as="geometry" />
        </mxCell>
        <mxCell id="aSYHZ8J5is49GkjM08Yo-58" value="Magdalena, Daniel, Ullah, Thomas, Mona" style="text;html=1;strokeColor=none;fillColor=none;align=right;verticalAlign=middle;whiteSpace=wrap;rounded=0;dashed=1;fontSize=10;fontColor=#B3B3B3;" parent="1" vertex="1">
          <mxGeometry x="720" y="662" width="100" height="20" as="geometry" />
        </mxCell>
        <mxCell id="aSYHZ8J5is49GkjM08Yo-59" value="RWU from soil columns" style="rounded=1;whiteSpace=wrap;html=1;strokeWidth=2;fillColor=#FFFFFF;strokeColor=#999999;fontSize=14;" parent="1" vertex="1">
          <mxGeometry x="670" y="740" width="91.88" height="40" as="geometry" />
        </mxCell>
        <mxCell id="aSYHZ8J5is49GkjM08Yo-60" value="Tobias" style="text;html=1;strokeColor=none;fillColor=none;align=right;verticalAlign=middle;whiteSpace=wrap;rounded=0;dashed=1;fontSize=10;fontColor=#B3B3B3;" parent="1" vertex="1">
          <mxGeometry x="691.88" y="777" width="70" height="20" as="geometry" />
        </mxCell>
        <mxCell id="aSYHZ8J5is49GkjM08Yo-61" value="PHENOROB" style="rounded=1;whiteSpace=wrap;html=1;strokeWidth=2;fillColor=#FFFFFF;strokeColor=#999999;fontSize=14;" parent="1" vertex="1">
          <mxGeometry x="730" y="430" width="90" height="30" as="geometry" />
        </mxCell>
        <mxCell id="aSYHZ8J5is49GkjM08Yo-62" value="Thomas" style="text;html=1;strokeColor=none;fillColor=none;align=right;verticalAlign=middle;whiteSpace=wrap;rounded=0;dashed=1;fontSize=10;fontColor=#B3B3B3;" parent="1" vertex="1">
          <mxGeometry x="730" y="460" width="70" height="20" as="geometry" />
        </mxCell>
        <mxCell id="aSYHZ8J5is49GkjM08Yo-63" value="Rhizotron / columns" style="rounded=1;whiteSpace=wrap;html=1;strokeWidth=2;fillColor=#FFFFFF;strokeColor=#999999;fontSize=14;" parent="1" vertex="1">
          <mxGeometry x="830" y="292.5" width="70" height="30" as="geometry" />
        </mxCell>
        <mxCell id="aSYHZ8J5is49GkjM08Yo-64" value="Mona, Samuel" style="text;html=1;strokeColor=none;fillColor=none;align=right;verticalAlign=middle;whiteSpace=wrap;rounded=0;dashed=1;fontSize=10;fontColor=#B3B3B3;" parent="1" vertex="1">
          <mxGeometry x="830" y="322.5" width="70" height="20" as="geometry" />
        </mxCell>
        <mxCell id="aSYHZ8J5is49GkjM08Yo-77" style="edgeStyle=orthogonalEdgeStyle;rounded=0;orthogonalLoop=1;jettySize=auto;html=1;entryX=1;entryY=0.5;entryDx=0;entryDy=0;strokeColor=#336600;strokeWidth=1;fontSize=19;fontColor=#80FF00;curved=1;dashed=1;" parent="1" source="aSYHZ8J5is49GkjM08Yo-65" target="aSYHZ8J5is49GkjM08Yo-57" edge="1">
          <mxGeometry relative="1" as="geometry" />
        </mxCell>
        <mxCell id="aSYHZ8J5is49GkjM08Yo-65" value="VR" style="rounded=1;whiteSpace=wrap;html=1;strokeWidth=2;fillColor=#FFFFFF;strokeColor=#999999;fontSize=14;" parent="1" vertex="1">
          <mxGeometry x="910" y="480" width="70" height="30" as="geometry" />
        </mxCell>
        <mxCell id="aSYHZ8J5is49GkjM08Yo-66" value="Dirk, Tobias" style="text;html=1;strokeColor=none;fillColor=none;align=right;verticalAlign=middle;whiteSpace=wrap;rounded=0;dashed=1;fontSize=7;fontColor=#B3B3B3;" parent="1" vertex="1">
          <mxGeometry x="910" y="510" width="70" height="20" as="geometry" />
        </mxCell>
        <mxCell id="aSYHZ8J5is49GkjM08Yo-78" style="edgeStyle=orthogonalEdgeStyle;curved=1;rounded=0;orthogonalLoop=1;jettySize=auto;html=1;entryX=1;entryY=0.5;entryDx=0;entryDy=0;dashed=1;strokeColor=#336600;strokeWidth=1;fontSize=19;fontColor=#80FF00;" parent="1" source="aSYHZ8J5is49GkjM08Yo-67" target="aSYHZ8J5is49GkjM08Yo-57" edge="1">
          <mxGeometry relative="1" as="geometry" />
        </mxCell>
        <mxCell id="aSYHZ8J5is49GkjM08Yo-67" value="RootPainter" style="rounded=1;whiteSpace=wrap;html=1;strokeWidth=2;fillColor=#FFFFFF;strokeColor=#999999;fontSize=14;" parent="1" vertex="1">
          <mxGeometry x="930" y="560" width="100" height="30" as="geometry" />
        </mxCell>
        <mxCell id="aSYHZ8J5is49GkjM08Yo-68" value="Felix" style="text;html=1;strokeColor=none;fillColor=none;align=right;verticalAlign=middle;whiteSpace=wrap;rounded=0;dashed=1;fontSize=10;fontColor=#B3B3B3;" parent="1" vertex="1">
          <mxGeometry x="930" y="590" width="70" height="20" as="geometry" />
        </mxCell>
        <mxCell id="aSYHZ8J5is49GkjM08Yo-81" style="edgeStyle=orthogonalEdgeStyle;curved=1;rounded=0;orthogonalLoop=1;jettySize=auto;html=1;entryX=1;entryY=0.5;entryDx=0;entryDy=0;dashed=1;strokeColor=#336600;strokeWidth=1;fontSize=19;fontColor=#80FF00;" parent="1" source="aSYHZ8J5is49GkjM08Yo-69" target="aSYHZ8J5is49GkjM08Yo-59" edge="1">
          <mxGeometry relative="1" as="geometry" />
        </mxCell>
        <mxCell id="aSYHZ8J5is49GkjM08Yo-69" value="NR experiment" style="rounded=1;whiteSpace=wrap;html=1;strokeWidth=2;fillColor=#FFFFFF;strokeColor=#999999;fontSize=14;" parent="1" vertex="1">
          <mxGeometry x="870" y="745" width="100" height="30" as="geometry" />
        </mxCell>
        <mxCell id="aSYHZ8J5is49GkjM08Yo-70" value="Tötzke" style="text;html=1;strokeColor=none;fillColor=none;align=right;verticalAlign=middle;whiteSpace=wrap;rounded=0;dashed=1;fontSize=10;fontColor=#B3B3B3;" parent="1" vertex="1">
          <mxGeometry x="870" y="775" width="70" height="20" as="geometry" />
        </mxCell>
        <mxCell id="aSYHZ8J5is49GkjM08Yo-71" value="Optimisation" style="rounded=1;whiteSpace=wrap;html=1;strokeWidth=2;fillColor=#FFFFFF;strokeColor=#999999;fontSize=14;dashed=1;" parent="1" vertex="1">
          <mxGeometry x="790" y="840" width="90" height="30" as="geometry" />
        </mxCell>
        <mxCell id="aSYHZ8J5is49GkjM08Yo-72" value="Eric Laloy" style="text;html=1;strokeColor=none;fillColor=none;align=right;verticalAlign=middle;whiteSpace=wrap;rounded=0;dashed=1;fontSize=10;fontColor=#B3B3B3;" parent="1" vertex="1">
          <mxGeometry x="790" y="870" width="70" height="20" as="geometry" />
        </mxCell>
        <mxCell id="aSYHZ8J5is49GkjM08Yo-73" value="Rhizotron &lt;br style=&quot;font-size: 14px;&quot;&gt;facility" style="rounded=1;whiteSpace=wrap;html=1;strokeWidth=2;fillColor=#FFFFFF;strokeColor=#999999;fontSize=14;" parent="1" vertex="1">
          <mxGeometry x="879.38" y="380" width="70" height="30" as="geometry" />
        </mxCell>
        <mxCell id="aSYHZ8J5is49GkjM08Yo-74" value="Lena, Thomas, Samuel, Mona" style="text;html=1;strokeColor=none;fillColor=none;align=right;verticalAlign=middle;whiteSpace=wrap;rounded=0;dashed=1;fontSize=10;fontColor=#B3B3B3;" parent="1" vertex="1">
          <mxGeometry x="879.38" y="412" width="70" height="20" as="geometry" />
        </mxCell>
        <mxCell id="aSYHZ8J5is49GkjM08Yo-79" style="edgeStyle=orthogonalEdgeStyle;curved=1;rounded=0;orthogonalLoop=1;jettySize=auto;html=1;dashed=1;strokeColor=#336600;strokeWidth=1;fontSize=19;fontColor=#80FF00;" parent="1" source="aSYHZ8J5is49GkjM08Yo-75" edge="1">
          <mxGeometry relative="1" as="geometry">
            <mxPoint x="820" y="650" as="targetPoint" />
            <Array as="points">
              <mxPoint x="850" y="675" />
              <mxPoint x="850" y="650" />
            </Array>
          </mxGeometry>
        </mxCell>
        <mxCell id="aSYHZ8J5is49GkjM08Yo-75" value="Behnke" style="rounded=1;whiteSpace=wrap;html=1;strokeWidth=2;fillColor=#FFFFFF;strokeColor=#999999;fontSize=14;" parent="1" vertex="1">
          <mxGeometry x="910" y="660" width="70" height="30" as="geometry" />
        </mxCell>
        <mxCell id="aSYHZ8J5is49GkjM08Yo-76" value="Tobias, Magdalena" style="text;html=1;strokeColor=none;fillColor=none;align=right;verticalAlign=middle;whiteSpace=wrap;rounded=0;dashed=1;fontSize=10;fontColor=#B3B3B3;" parent="1" vertex="1">
          <mxGeometry x="910" y="692" width="70" height="20" as="geometry" />
        </mxCell>
        <mxCell id="Aonq5_ewrlIDJZ2xmqO3-1" value="HPC/GPU &lt;br style=&quot;font-size: 14px;&quot;&gt;computing" style="rounded=1;whiteSpace=wrap;html=1;strokeWidth=2;fillColor=#FFFFFF;strokeColor=#999999;fontSize=14;dashed=1;" parent="1" vertex="1">
          <mxGeometry x="510" y="735" width="110" height="30" as="geometry" />
        </mxCell>
        <mxCell id="Aonq5_ewrlIDJZ2xmqO3-2" value="???" style="text;html=1;strokeColor=none;fillColor=none;align=right;verticalAlign=middle;whiteSpace=wrap;rounded=0;dashed=1;fontSize=10;fontColor=#B3B3B3;" parent="1" vertex="1">
          <mxGeometry x="510" y="765" width="70" height="20" as="geometry" />
        </mxCell>
        <mxCell id="Aonq5_ewrlIDJZ2xmqO3-3" value="Maintenance" style="rounded=1;whiteSpace=wrap;html=1;strokeWidth=2;fillColor=#FFFFFF;strokeColor=#999999;fontSize=14;dashed=1;" parent="1" vertex="1">
          <mxGeometry x="535" y="430" width="95" height="30" as="geometry" />
        </mxCell>
        <mxCell id="Aonq5_ewrlIDJZ2xmqO3-4" value="Everyone" style="text;html=1;strokeColor=none;fillColor=none;align=right;verticalAlign=middle;whiteSpace=wrap;rounded=0;dashed=1;fontSize=10;fontColor=#B3B3B3;" parent="1" vertex="1">
          <mxGeometry x="535" y="460" width="70" height="20" as="geometry" />
        </mxCell>
      </root>
    </mxGraphModel>
  </diagram>
</mxfile>
